<?xml version="1.0" encoding="UTF-8" standalone="no"?>
<svg width="25px" height="25px" viewBox="0 0 25 25" version="1.1" xmlns="http://www.w3.org/2000/svg" xmlns:xlink="http://www.w3.org/1999/xlink">
    <!-- Generator: Sketch 39 (31667) - http://www.bohemiancoding.com/sketch -->
    <title>alarm-clock</title>
    <desc>Created with Sketch.</desc>
    <defs></defs>
    <g id="Symbols" stroke="none" stroke-width="1" fill="none" fill-rule="evenodd">
        <g id="Section-1" transform="translate(-36.000000, -111.000000)" fill="#000000">
            <g id="alarm-clock">
                <g transform="translate(36.000000, 111.000000)">
                    <g id="Capa_1">
                        <g id="Group">
                            <path d="M16.9813559,12.3529661 L13.9550847,12.3529661 C13.8008475,11.7601695 13.3368644,11.2961864 12.7440678,11.1419492 L12.7440678,6.84449153 C12.7440678,6.61016949 12.5542373,6.42076271 12.320339,6.42076271 C12.0864407,6.42076271 11.8966102,6.61016949 11.8966102,6.84449153 L11.8966102,11.1419492 C11.1677966,11.3313559 10.6254237,11.9889831 10.6254237,12.7766949 C10.6254237,13.7114407 11.3855932,14.4716102 12.320339,14.4716102 C13.1076271,14.4716102 13.765678,13.9292373 13.9550847,13.2004237 L16.9813559,13.2004237 C17.2152542,13.2004237 17.4050847,13.0110169 17.4050847,12.7766949 C17.4050847,12.5423729 17.215678,12.3529661 16.9813559,12.3529661 L16.9813559,12.3529661 Z M12.320339,13.6241525 C11.8529661,13.6241525 11.4728814,13.2440678 11.4728814,12.7766949 C11.4728814,12.309322 11.8529661,11.9292373 12.320339,11.9292373 C12.7877119,11.9292373 13.1677966,12.309322 13.1677966,12.7766949 C13.1677966,13.2440678 12.7877119,13.6241525 12.320339,13.6241525 L12.320339,13.6241525 Z" id="Shape"></path>
                            <path d="M21.2661017,4.13728814 L23.0016949,5.87288136 C23.0813559,5.95254237 23.1889831,5.9970339 23.3012712,5.9970339 C23.4135593,5.9970339 23.5216102,5.95254237 23.6008475,5.87288136 C24.9427966,4.53135593 24.9427966,2.34788136 23.6008475,1.00635593 C22.2588983,-0.335169492 20.0758475,-0.335169492 18.734322,1.00635593 C18.654661,1.08601695 18.6101695,1.19322034 18.6101695,1.3059322 C18.6101695,1.41864407 18.654661,1.52627119 18.734322,1.60550847 L20.6669492,3.53813559 L19.9470339,4.25805085 C17.9216102,2.44279661 15.2483051,1.33601695 12.3207627,1.33601695 C9.39322034,1.33601695 6.71991525,2.44279661 4.69449153,4.25805085 L3.97415254,3.53813559 L5.90677966,1.60550847 C5.98644068,1.52584746 6.0309322,1.41864407 6.0309322,1.3059322 C6.0309322,1.19322034 5.98644068,1.08559322 5.90677966,1.00635593 C4.56525424,-0.335169492 2.38220339,-0.335169492 1.04025424,1.00635593 C-0.301694915,2.34788136 -0.301694915,4.53135593 1.04025424,5.87288136 C1.11991525,5.95254237 1.22754237,5.9970339 1.33983051,5.9970339 C1.45211864,5.9970339 1.56016949,5.95254237 1.63940678,5.87288136 L3.375,4.13728814 L4.08516949,4.84745763 C2.10254237,6.90550847 0.879661017,9.70042373 0.879661017,12.7766949 C0.879661017,16.9707627 3.14957627,20.6427966 6.52415254,22.6347458 L5.24110169,23.9177966 C5.07542373,24.0834746 5.07542373,24.3512712 5.24110169,24.5169492 C5.32372881,24.5995763 5.43220339,24.6411017 5.54067797,24.6411017 C5.64915254,24.6411017 5.75762712,24.5995763 5.84025424,24.5169492 L7.30211864,23.0550847 C8.81822034,23.7983051 10.5211864,24.2173729 12.320339,24.2173729 C14.1194915,24.2173729 15.8224576,23.7983051 17.3385593,23.0550847 L18.8004237,24.5169492 C18.8830508,24.5995763 18.9915254,24.6411017 19.1,24.6411017 C19.2084746,24.6411017 19.3169492,24.5995763 19.3995763,24.5169492 C19.5652542,24.3512712 19.5652542,24.0834746 19.3995763,23.9177966 L18.1165254,22.6347458 C21.4911017,20.6427966 23.7610169,16.9707627 23.7610169,12.7766949 C23.7610169,9.70042373 22.5381356,6.90550847 20.5555085,4.84745763 L21.2661017,4.13728814 L21.2661017,4.13728814 Z M23.0012712,1.60550847 C23.9105932,2.51483051 24.0021186,3.93686441 23.2762712,4.95 L19.6572034,1.33050847 C20.6699153,0.604661017 22.0915254,0.695762712 23.0012712,1.60550847 L23.0012712,1.60550847 Z M1.36440678,4.94957627 C0.638559322,3.93686441 0.730084746,2.51483051 1.63940678,1.60550847 C2.54872881,0.696186441 3.97076271,0.605084746 4.98347458,1.33050847 L1.36440678,4.94957627 L1.36440678,4.94957627 Z M12.320339,23.3699153 C6.47923729,23.3699153 1.72711864,18.6177966 1.72711864,12.7766949 C1.72711864,6.93559322 6.47923729,2.18347458 12.320339,2.18347458 C18.1614407,2.18347458 22.9135593,6.93559322 22.9135593,12.7766949 C22.9135593,18.6177966 18.1618644,23.3699153 12.320339,23.3699153 L12.320339,23.3699153 Z" id="Shape"></path>
                            <path d="M12.320339,4.25084746 C12.5542373,4.25084746 12.7440678,4.06144068 12.7440678,3.82711864 L12.7440678,3.40338983 C12.7440678,3.1690678 12.5542373,2.97966102 12.320339,2.97966102 C12.0864407,2.97966102 11.8966102,3.1690678 11.8966102,3.40338983 L11.8966102,3.82711864 C11.8966102,4.06101695 12.0864407,4.25084746 12.320339,4.25084746 L12.320339,4.25084746 Z" id="Shape"></path>
                            <path d="M12.320339,21.2 C12.0864407,21.2 11.8966102,21.3894068 11.8966102,21.6237288 L11.8966102,22.0474576 C11.8966102,22.2817797 12.0864407,22.4711864 12.320339,22.4711864 C12.5542373,22.4711864 12.7440678,22.2817797 12.7440678,22.0474576 L12.7440678,21.6237288 C12.7440678,21.3894068 12.554661,21.2 12.320339,21.2 L12.320339,21.2 Z" id="Shape"></path>
                            <path d="M21.2186441,13.1491525 L21.6423729,13.1491525 C21.8762712,13.1491525 22.0661017,12.9597458 22.0661017,12.7254237 C22.0661017,12.4911017 21.8762712,12.3016949 21.6423729,12.3016949 L21.2186441,12.3016949 C20.9847458,12.3016949 20.7949153,12.4911017 20.7949153,12.7254237 C20.7949153,12.9597458 20.9847458,13.1491525 21.2186441,13.1491525 L21.2186441,13.1491525 Z" id="Shape"></path>
                            <path d="M3.4220339,12.3016949 L2.99830508,12.3016949 C2.76440678,12.3016949 2.57457627,12.4911017 2.57457627,12.7254237 C2.57457627,12.9597458 2.76440678,13.1491525 2.99830508,13.1491525 L3.4220339,13.1491525 C3.6559322,13.1491525 3.84576271,12.9597458 3.84576271,12.7254237 C3.84576271,12.4911017 3.65635593,12.3016949 3.4220339,12.3016949 L3.4220339,12.3016949 Z" id="Shape"></path>
                            <path d="M18.6127119,5.83389831 L18.3131356,6.13347458 C18.1474576,6.29915254 18.1474576,6.56694915 18.3131356,6.73262712 C18.3957627,6.81525424 18.5042373,6.85677966 18.6127119,6.85677966 C18.7211864,6.85677966 18.829661,6.81525424 18.9122881,6.73262712 L19.2118644,6.43305085 C19.3775424,6.26737288 19.3775424,5.99957627 19.2118644,5.83389831 C19.0461864,5.66822034 18.7779661,5.66822034 18.6127119,5.83389831 L18.6127119,5.83389831 Z" id="Shape"></path>
                            <path d="M5.72881356,18.7177966 L5.42923729,19.0173729 C5.26355932,19.1830508 5.26355932,19.4508475 5.42923729,19.6165254 C5.51186441,19.6991525 5.62033898,19.740678 5.72881356,19.740678 C5.83728814,19.740678 5.94576271,19.6991525 6.02838983,19.6165254 L6.3279661,19.3169492 C6.49364407,19.1512712 6.49364407,18.8834746 6.3279661,18.7177966 C6.16228814,18.5521186 5.89449153,18.5525424 5.72881356,18.7177966 L5.72881356,18.7177966 Z" id="Shape"></path>
                            <path d="M18.9122881,18.7177966 C18.7466102,18.5521186 18.4788136,18.5521186 18.3131356,18.7177966 C18.1474576,18.8834746 18.1474576,19.1512712 18.3131356,19.3169492 L18.6127119,19.6165254 C18.695339,19.6991525 18.8038136,19.740678 18.9122881,19.740678 C19.0207627,19.740678 19.1292373,19.6991525 19.2118644,19.6165254 C19.3775424,19.4508475 19.3775424,19.1830508 19.2118644,19.0173729 L18.9122881,18.7177966 L18.9122881,18.7177966 Z" id="Shape"></path>
                            <path d="M6.02838983,5.83389831 C5.86271186,5.66822034 5.59491525,5.66822034 5.42923729,5.83389831 C5.26355932,5.99957627 5.26355932,6.26737288 5.42923729,6.43305085 L5.72881356,6.73262712 C5.81144068,6.81525424 5.91991525,6.85677966 6.02838983,6.85677966 C6.13686441,6.85677966 6.24533898,6.81525424 6.3279661,6.73262712 C6.49364407,6.56694915 6.49364407,6.29915254 6.3279661,6.13347458 L6.02838983,5.83389831 L6.02838983,5.83389831 Z" id="Shape"></path>
                        </g>
                    </g>
                </g>
            </g>
        </g>
    </g>
</svg>