<?xml version="1.0" encoding="UTF-8" standalone="no"?>
<svg width="20px" height="21px" viewBox="0 0 20 21" version="1.1" xmlns="http://www.w3.org/2000/svg" xmlns:xlink="http://www.w3.org/1999/xlink">
    <!-- Generator: Sketch 39 (31667) - http://www.bohemiancoding.com/sketch -->
    <title>bell</title>
    <desc>Created with Sketch.</desc>
    <defs></defs>
    <g id="Symbols" stroke="none" stroke-width="1" fill="none" fill-rule="evenodd">
        <g id="Header" transform="translate(-1252.000000, -20.000000)" fill="#FFFFFF">
            <g id="bell">
                <g transform="translate(1252.000000, 20.000000)">
                    <g id="Capa_1">
                        <path d="M19.1396879,15.8990408 L18.9154906,15.7801505 C16.8059021,14.661094 16.4454587,13.1562038 16.3903582,12.6027649 L16.4017448,7.67428213 C16.1199602,4.57734169 13.8816513,2.14206583 10.9687871,1.53405329 L10.9687871,1.40160188 C10.9688525,0.627432602 10.3438353,0 9.57465381,0 C8.80455617,0 8.18084775,0.627432602 8.18084775,1.40166771 L8.18084775,1.52016301 C5.03370841,2.15858934 2.65496528,4.96021317 2.65496528,8.31231348 C2.65496528,8.51836364 2.68356255,12.2397743 2.68611471,12.5659655 C2.60706321,13.3321693 2.18098353,14.7469373 0.233751595,15.7801505 L0.00955423653,15.8990408 L0.00955423653,19.2422539 L6.69751981,19.2422539 C7.05966464,20.242815 8.21029574,20.9751818 9.57465381,20.9751818 C10.9385538,20.9751818 12.0892503,20.2436708 12.4513952,19.2422539 L19.1393607,19.2422539 L19.1396879,15.8990408 Z" id="Shape"></path>
                    </g>
                </g>
            </g>
        </g>
    </g>
</svg>