<?xml version="1.0" encoding="UTF-8" standalone="no"?>
<svg width="15px" height="18px" viewBox="0 0 15 18" version="1.1" xmlns="http://www.w3.org/2000/svg" xmlns:xlink="http://www.w3.org/1999/xlink">
    <!-- Generator: Sketch 39 (31667) - http://www.bohemiancoding.com/sketch -->
    <title>bookmark</title>
    <desc>Created with Sketch.</desc>
    <defs></defs>
    <g id="Student-Homepage" stroke="none" stroke-width="1" fill="none" fill-rule="evenodd">
        <g id="STUDENT-HOMEPAGE" transform="translate(-531.000000, -462.000000)" stroke-width="0.5" stroke="#4990E2" fill="#4990E2">
            <g id="Post-2" transform="translate(393.000000, 463.000000)">
                <g id="bookmark" transform="translate(138.000000, 0.000000)">
                    <g id="Capa_1">
                        <path d="M13.8946783,1.72238596 C13.8946783,0.789333333 13.1478261,0.0232982456 12.225113,0.00280701754 L12.225113,0 L1.95450435,0 C1.02010435,0 0.259895652,0.766596491 0.259895652,1.70947368 L0.259895652,15.9629474 L5.54685217,12.4075789 L10.8338087,15.9629474 L10.8338087,7.01754386 L13.8946783,7.01754386 L13.8946783,1.72238596 L13.8946783,1.72238596 Z M10.277287,14.9142456 L5.54685217,11.7327719 L0.816417391,14.9142456 L0.816417391,1.70947368 C0.816417391,1.07649123 1.32702609,0.561403509 1.95450435,0.561403509 L10.8633043,0.561403509 C10.5897739,0.831438596 10.3952696,1.18231579 10.3165217,1.57501754 L10.3162435,1.57585965 C10.3037217,1.63817544 10.2939826,1.70161404 10.2875826,1.76589474 C10.2809043,1.83129825 10.277287,1.89782456 10.277287,1.96491228 L10.277287,7.01754386 L10.277287,14.9142456 L10.277287,14.9142456 Z M13.3381565,6.45614035 L10.8338087,6.45614035 L10.8338087,1.96491228 C10.8338087,1.86947368 10.8435478,1.7765614 10.8616348,1.68645614 C10.9693217,1.15592982 11.3786435,0.732350877 11.8989913,0.604350877 C11.9090087,0.601824561 11.917913,0.597333333 11.9279304,0.595368421 C11.9955478,0.580210526 12.0665043,0.574877193 12.1374609,0.570385965 C12.1605565,0.568982456 12.1825391,0.563649123 12.205913,0.563368421 C12.830887,0.573754386 13.3381565,1.09136842 13.3381565,1.72238596 L13.3381565,6.45614035 L13.3381565,6.45614035 Z" id="Shape"></path>
                    </g>
                </g>
            </g>
        </g>
    </g>
</svg>