<?xml version="1.0" encoding="UTF-8" standalone="no"?>
<svg width="25px" height="25px" viewBox="0 0 25 25" version="1.1" xmlns="http://www.w3.org/2000/svg" xmlns:xlink="http://www.w3.org/1999/xlink">
    <!-- Generator: Sketch 39 (31667) - http://www.bohemiancoding.com/sketch -->
    <title>calendar</title>
    <desc>Created with Sketch.</desc>
    <defs></defs>
    <g id="Symbols" stroke="none" stroke-width="1" fill="none" fill-rule="evenodd">
        <g id="Section-1" transform="translate(-213.000000, -111.000000)" fill="#000000">
            <g id="calendar">
                <g transform="translate(213.000000, 111.000000)">
                    <g id="Capa_1">
                        <g id="Group">
                            <path d="M20.9375,4.58333333 C20.28625,4.23416667 16.2366667,2.05416667 14.01125,0.657916667 C13.63125,0.255 13.09625,0 12.5,0 C11.90375,0 11.36875,0.255 10.98875,0.657916667 C8.76291667,2.05375 4.71375,4.23416667 4.0625,4.58333333 L0,4.58333333 L0,25 L25,25 L25,4.58333333 L20.9375,4.58333333 L20.9375,4.58333333 Z M13.42625,1.25166667 C13.4279167,1.25375 13.4283333,1.25625 13.4304167,1.25833333 C13.5316667,1.37208333 13.6433333,1.54416667 13.7041667,1.765 C13.7091667,1.78375 13.7175,1.80125 13.7216667,1.82083333 C13.7391667,1.90166667 13.75,1.98916667 13.75,2.08333333 C13.75,2.7725 13.1891667,3.33333333 12.5,3.33333333 C11.8108333,3.33333333 11.25,2.7725 11.25,2.08333333 C11.25,1.98916667 11.2608333,1.90166667 11.27875,1.82083333 C11.2829167,1.80166667 11.2908333,1.78458333 11.2958333,1.76583333 C11.3566667,1.54416667 11.4683333,1.3725 11.5695833,1.25833333 C11.57125,1.25625 11.5716667,1.25375 11.57375,1.25166667 C11.8029167,0.997083333 12.13125,0.833333333 12.5,0.833333333 C12.86875,0.833333333 13.1970833,0.997083333 13.42625,1.25166667 L13.42625,1.25166667 Z M10.4191667,1.98083333 C10.4175,2.015 10.4166667,2.04916667 10.4166667,2.08333333 C10.4166667,3.23208333 11.35125,4.16666667 12.5,4.16666667 C13.64875,4.16666667 14.5833333,3.23208333 14.5833333,2.08333333 C14.5833333,2.04916667 14.5825,2.015 14.5808333,1.98083333 C16.0779167,2.87083333 17.92875,3.89625 19.1879167,4.58333333 L5.81208333,4.58333333 C7.07125,3.89625 8.92208333,2.87083333 10.4191667,1.98083333 L10.4191667,1.98083333 Z M4.16666667,5.41666667 L20.8333333,5.41666667 L24.1666667,5.41666667 L24.1666667,7.5 L0.833333333,7.5 L0.833333333,5.41666667 L4.16666667,5.41666667 L4.16666667,5.41666667 Z M0.833333333,24.1666667 L0.833333333,8.33333333 L24.1666667,8.33333333 L24.1666667,24.1666667 L0.833333333,24.1666667 L0.833333333,24.1666667 Z" id="Shape"></path>
                            <ellipse id="Oval" cx="9.58333333" cy="11.6666667" rx="0.416666667" ry="0.416666667"></ellipse>
                            <circle id="Oval" cx="12.5" cy="11.6666667" r="0.416666667"></circle>
                            <ellipse id="Oval" cx="15.4166667" cy="11.6666667" rx="0.416666667" ry="0.416666667"></ellipse>
                            <ellipse id="Oval" cx="18.3333333" cy="11.6666667" rx="0.416666667" ry="0.416666667"></ellipse>
                            <ellipse id="Oval" cx="21.25" cy="11.6666667" rx="0.416666667" ry="0.416666667"></ellipse>
                            <ellipse id="Oval" cx="3.75" cy="15" rx="0.416666667" ry="0.416666667"></ellipse>
                            <ellipse id="Oval" cx="6.66666667" cy="15" rx="0.416666667" ry="0.416666667"></ellipse>
                            <ellipse id="Oval" cx="9.58333333" cy="15" rx="0.416666667" ry="0.416666667"></ellipse>
                            <ellipse id="Oval" cx="12.5" cy="15" rx="0.416666667" ry="0.416666667"></ellipse>
                            <ellipse id="Oval" cx="15.4166667" cy="15" rx="0.416666667" ry="0.416666667"></ellipse>
                            <ellipse id="Oval" cx="18.3333333" cy="15" rx="0.416666667" ry="0.416666667"></ellipse>
                            <ellipse id="Oval" cx="21.25" cy="15" rx="0.416666667" ry="0.416666667"></ellipse>
                            <ellipse id="Oval" cx="3.75" cy="17.9166667" rx="0.416666667" ry="0.416666667"></ellipse>
                            <ellipse id="Oval" cx="6.66666667" cy="17.9166667" rx="0.416666667" ry="0.416666667"></ellipse>
                            <circle id="Oval" cx="9.58333333" cy="17.9166667" r="0.416666667"></circle>
                            <ellipse id="Oval" cx="12.5" cy="17.9166667" rx="0.416666667" ry="0.416666667"></ellipse>
                            <ellipse id="Oval" cx="15.4166667" cy="17.9166667" rx="0.416666667" ry="0.416666667"></ellipse>
                            <ellipse id="Oval" cx="18.3333333" cy="17.9166667" rx="0.416666667" ry="0.416666667"></ellipse>
                            <ellipse id="Oval" cx="21.25" cy="17.9166667" rx="0.416666667" ry="0.416666667"></ellipse>
                            <ellipse id="Oval" cx="3.75" cy="21.25" rx="0.416666667" ry="0.416666667"></ellipse>
                            <circle id="Oval" cx="6.66666667" cy="21.25" r="0.416666667"></circle>
                            <ellipse id="Oval" cx="9.58333333" cy="21.25" rx="0.416666667" ry="0.416666667"></ellipse>
                            <ellipse id="Oval" cx="12.5" cy="21.25" rx="0.416666667" ry="0.416666667"></ellipse>
                            <ellipse id="Oval" cx="15.4166667" cy="21.25" rx="0.416666667" ry="0.416666667"></ellipse>
                        </g>
                    </g>
                </g>
            </g>
        </g>
    </g>
</svg>