<?xml version="1.0" encoding="UTF-8" standalone="no"?>
<svg width="29px" height="28px" viewBox="0 0 29 28" version="1.1" xmlns="http://www.w3.org/2000/svg" xmlns:xlink="http://www.w3.org/1999/xlink">
    <!-- Generator: Sketch 39.1 (31720) - http://www.bohemiancoding.com/sketch -->
    <title>event</title>
    <desc>Created with Sketch.</desc>
    <defs></defs>
    <g id="Page-1" stroke="none" stroke-width="1" fill="none" fill-rule="evenodd">
        <g id="event" transform="translate(0.127660, 0.000000)">
            <g id="Capa_1">
                <g id="Group">
                    <path d="M0.893617021,8.17957447 L0.893617021,23.5319149 L27.106383,23.5319149 L27.106383,8.17957447 L0.893617021,8.17957447 L0.893617021,8.17957447 Z M5.24255319,20.8391489 L3.45531915,20.8391489 C3.2085617,20.8391489 3.00851064,20.6390979 3.00851064,20.3923404 C3.00851064,20.145583 3.2085617,19.9455319 3.45531915,19.9455319 L5.24255319,19.9455319 C5.48931064,19.9455319 5.6893617,20.145583 5.6893617,20.3923404 C5.6893617,20.6390979 5.48931064,20.8391489 5.24255319,20.8391489 L5.24255319,20.8391489 Z M5.24255319,17.6221277 L3.45531915,17.6221277 C3.2085617,17.6221277 3.00851064,17.4220766 3.00851064,17.1753191 C3.00851064,16.9285617 3.2085617,16.7285106 3.45531915,16.7285106 L5.24255319,16.7285106 C5.48931064,16.7285106 5.6893617,16.9285617 5.6893617,17.1753191 C5.6893617,17.4220766 5.48931064,17.6221277 5.24255319,17.6221277 L5.24255319,17.6221277 Z M5.24255319,14.4051064 L3.45531915,14.4051064 C3.2085617,14.4051064 3.00851064,14.2050553 3.00851064,13.9582979 C3.00851064,13.7115404 3.2085617,13.5114894 3.45531915,13.5114894 L5.24255319,13.5114894 C5.48931064,13.5114894 5.6893617,13.7115404 5.6893617,13.9582979 C5.6893617,14.2050553 5.48931064,14.4051064 5.24255319,14.4051064 L5.24255319,14.4051064 Z M5.24255319,11.1880851 L3.45531915,11.1880851 C3.2085617,11.1880851 3.00851064,10.988034 3.00851064,10.7412766 C3.00851064,10.4945191 3.2085617,10.2944681 3.45531915,10.2944681 L5.24255319,10.2944681 C5.48931064,10.2944681 5.6893617,10.4945191 5.6893617,10.7412766 C5.6893617,10.988034 5.48931064,11.1880851 5.24255319,11.1880851 L5.24255319,11.1880851 Z M10.0680851,20.8391489 L8.28085106,20.8391489 C8.03409362,20.8391489 7.83404255,20.6390979 7.83404255,20.3923404 C7.83404255,20.145583 8.03409362,19.9455319 8.28085106,19.9455319 L10.0680851,19.9455319 C10.3148426,19.9455319 10.5148936,20.145583 10.5148936,20.3923404 C10.5148936,20.6390979 10.3148426,20.8391489 10.0680851,20.8391489 L10.0680851,20.8391489 Z M10.0680851,17.6221277 L8.28085106,17.6221277 C8.03409362,17.6221277 7.83404255,17.4220766 7.83404255,17.1753191 C7.83404255,16.9285617 8.03409362,16.7285106 8.28085106,16.7285106 L10.0680851,16.7285106 C10.3148426,16.7285106 10.5148936,16.9285617 10.5148936,17.1753191 C10.5148936,17.4220766 10.3148426,17.6221277 10.0680851,17.6221277 L10.0680851,17.6221277 Z M10.0680851,14.4051064 L8.28085106,14.4051064 C8.03409362,14.4051064 7.83404255,14.2050553 7.83404255,13.9582979 C7.83404255,13.7115404 8.03409362,13.5114894 8.28085106,13.5114894 L10.0680851,13.5114894 C10.3148426,13.5114894 10.5148936,13.7115404 10.5148936,13.9582979 C10.5148936,14.2050553 10.3148426,14.4051064 10.0680851,14.4051064 L10.0680851,14.4051064 Z M10.0680851,11.1880851 L8.28085106,11.1880851 C8.03409362,11.1880851 7.83404255,10.988034 7.83404255,10.7412766 C7.83404255,10.4945191 8.03409362,10.2944681 8.28085106,10.2944681 L10.0680851,10.2944681 C10.3148426,10.2944681 10.5148936,10.4945191 10.5148936,10.7412766 C10.5148936,10.988034 10.3148426,11.1880851 10.0680851,11.1880851 L10.0680851,11.1880851 Z M14.893617,20.8391489 L13.106383,20.8391489 C12.8596255,20.8391489 12.6595745,20.6390979 12.6595745,20.3923404 C12.6595745,20.145583 12.8596255,19.9455319 13.106383,19.9455319 L14.893617,19.9455319 C15.140434,19.9455319 15.3404255,20.145583 15.3404255,20.3923404 C15.3404255,20.6390979 15.140434,20.8391489 14.893617,20.8391489 L14.893617,20.8391489 Z M14.893617,17.6221277 L13.106383,17.6221277 C12.8596255,17.6221277 12.6595745,17.4220766 12.6595745,17.1753191 C12.6595745,16.9285617 12.8596255,16.7285106 13.106383,16.7285106 L14.893617,16.7285106 C15.140434,16.7285106 15.3404255,16.9285617 15.3404255,17.1753191 C15.3404255,17.4220766 15.140434,17.6221277 14.893617,17.6221277 L14.893617,17.6221277 Z M14.893617,14.4051064 L13.106383,14.4051064 C12.8596255,14.4051064 12.6595745,14.2050553 12.6595745,13.9582979 C12.6595745,13.7115404 12.8596255,13.5114894 13.106383,13.5114894 L14.893617,13.5114894 C15.140434,13.5114894 15.3404255,13.7115404 15.3404255,13.9582979 C15.3404255,14.2050553 15.140434,14.4051064 14.893617,14.4051064 L14.893617,14.4051064 Z M14.893617,11.1880851 L13.106383,11.1880851 C12.8596255,11.1880851 12.6595745,10.988034 12.6595745,10.7412766 C12.6595745,10.4945191 12.8596255,10.2944681 13.106383,10.2944681 L14.893617,10.2944681 C15.140434,10.2944681 15.3404255,10.4945191 15.3404255,10.7412766 C15.3404255,10.988034 15.140434,11.1880851 14.893617,11.1880851 L14.893617,11.1880851 Z M19.7191489,20.8391489 L17.9319149,20.8391489 C17.6850979,20.8391489 17.4851064,20.6390979 17.4851064,20.3923404 C17.4851064,20.145583 17.6850979,19.9455319 17.9319149,19.9455319 L19.7191489,19.9455319 C19.965966,19.9455319 20.1659574,20.145583 20.1659574,20.3923404 C20.1659574,20.6390979 19.965966,20.8391489 19.7191489,20.8391489 L19.7191489,20.8391489 Z M19.7191489,17.6221277 L17.9319149,17.6221277 C17.6850979,17.6221277 17.4851064,17.4220766 17.4851064,17.1753191 C17.4851064,16.9285617 17.6850979,16.7285106 17.9319149,16.7285106 L19.7191489,16.7285106 C19.965966,16.7285106 20.1659574,16.9285617 20.1659574,17.1753191 C20.1659574,17.4220766 19.965966,17.6221277 19.7191489,17.6221277 L19.7191489,17.6221277 Z M19.7191489,14.4051064 L17.9319149,14.4051064 C17.6850979,14.4051064 17.4851064,14.2050553 17.4851064,13.9582979 C17.4851064,13.7115404 17.6850979,13.5114894 17.9319149,13.5114894 L19.7191489,13.5114894 C19.965966,13.5114894 20.1659574,13.7115404 20.1659574,13.9582979 C20.1659574,14.2050553 19.965966,14.4051064 19.7191489,14.4051064 L19.7191489,14.4051064 Z M19.7191489,11.1880851 L17.9319149,11.1880851 C17.6850979,11.1880851 17.4851064,10.988034 17.4851064,10.7412766 C17.4851064,10.4945191 17.6850979,10.2944681 17.9319149,10.2944681 L19.7191489,10.2944681 C19.965966,10.2944681 20.1659574,10.4945191 20.1659574,10.7412766 C20.1659574,10.988034 19.965966,11.1880851 19.7191489,11.1880851 L19.7191489,11.1880851 Z M24.5446809,20.8391489 L22.7574468,20.8391489 C22.5106298,20.8391489 22.3106383,20.6390979 22.3106383,20.3923404 C22.3106383,20.145583 22.5106298,19.9455319 22.7574468,19.9455319 L24.5446809,19.9455319 C24.7914979,19.9455319 24.9914894,20.145583 24.9914894,20.3923404 C24.9914894,20.6390979 24.7914979,20.8391489 24.5446809,20.8391489 L24.5446809,20.8391489 Z M24.5446809,17.6221277 L22.7574468,17.6221277 C22.5106298,17.6221277 22.3106383,17.4220766 22.3106383,17.1753191 C22.3106383,16.9285617 22.5106298,16.7285106 22.7574468,16.7285106 L24.5446809,16.7285106 C24.7914979,16.7285106 24.9914894,16.9285617 24.9914894,17.1753191 C24.9914894,17.4220766 24.7914979,17.6221277 24.5446809,17.6221277 L24.5446809,17.6221277 Z M24.5446809,14.4051064 L22.7574468,14.4051064 C22.5106298,14.4051064 22.3106383,14.2050553 22.3106383,13.9582979 C22.3106383,13.7115404 22.5106298,13.5114894 22.7574468,13.5114894 L24.5446809,13.5114894 C24.7914979,13.5114894 24.9914894,13.7115404 24.9914894,13.9582979 C24.9914894,14.2050553 24.7914979,14.4051064 24.5446809,14.4051064 L24.5446809,14.4051064 Z M24.5446809,11.1880851 L22.7574468,11.1880851 C22.5106298,11.1880851 22.3106383,10.988034 22.3106383,10.7412766 C22.3106383,10.4945191 22.5106298,10.2944681 22.7574468,10.2944681 L24.5446809,10.2944681 C24.7914979,10.2944681 24.9914894,10.4945191 24.9914894,10.7412766 C24.9914894,10.988034 24.7914979,11.1880851 24.5446809,11.1880851 L24.5446809,11.1880851 Z" id="Shape" fill="#FFFFFF"></path>
                    <path d="M24.2765957,1.34042553 L24.2765957,3.12765957 C24.2765957,3.37405957 24.4770043,3.57446809 24.7234043,3.57446809 C24.9698043,3.57446809 25.1702128,3.37405957 25.1702128,3.12765957 L25.1702128,1.34042553 C25.1702128,1.09402553 24.9698043,0.893617021 24.7234043,0.893617021 C24.4770043,0.893617021 24.2765957,1.09402553 24.2765957,1.34042553 L24.2765957,1.34042553 Z" id="Shape" fill="#98D9D5"></path>
                    <path d="M17.1276596,1.34042553 L17.1276596,3.12765957 C17.1276596,3.37405957 17.3280681,3.57446809 17.5744681,3.57446809 C17.8208681,3.57446809 18.0212766,3.37405957 18.0212766,3.12765957 L18.0212766,1.34042553 C18.0212766,1.09402553 17.8208681,0.893617021 17.5744681,0.893617021 C17.3280681,0.893617021 17.1276596,1.09402553 17.1276596,1.34042553 L17.1276596,1.34042553 Z" id="Shape" fill="#98D9D5"></path>
                    <path d="M9.9787234,1.34042553 L9.9787234,3.12765957 C9.9787234,3.37405957 10.1791319,3.57446809 10.4255319,3.57446809 C10.6719319,3.57446809 10.8723404,3.37405957 10.8723404,3.12765957 L10.8723404,1.34042553 C10.8723404,1.09402553 10.6719319,0.893617021 10.4255319,0.893617021 C10.1791319,0.893617021 9.9787234,1.09402553 9.9787234,1.34042553 L9.9787234,1.34042553 Z" id="Shape" fill="#98D9D5"></path>
                    <path d="M2.82978723,1.34042553 L2.82978723,3.12765957 C2.82978723,3.37405957 3.03019574,3.57446809 3.27659574,3.57446809 C3.52299574,3.57446809 3.72340426,3.37405957 3.72340426,3.12765957 L3.72340426,1.34042553 C3.72340426,1.09402553 3.52299574,0.893617021 3.27659574,0.893617021 C3.03019574,0.893617021 2.82978723,1.09402553 2.82978723,1.34042553 L2.82978723,1.34042553 Z" id="Shape" fill="#98D9D5"></path>
                    <path d="M0.893617021,2.68085106 L0.893617021,7.28595745 L27.106383,7.28595745 L27.106383,2.68085106 L26.0638298,2.68085106 L26.0638298,3.12765957 C26.0638298,3.8668 25.4624851,4.46808511 24.7234043,4.46808511 C23.9843234,4.46808511 23.3829787,3.8668 23.3829787,3.12765957 L23.3829787,2.68085106 L18.9148936,2.68085106 L18.9148936,3.12765957 C18.9148936,3.8668 18.3135489,4.46808511 17.5744681,4.46808511 C16.8353872,4.46808511 16.2340426,3.8668 16.2340426,3.12765957 L16.2340426,2.68085106 L11.7659574,2.68085106 L11.7659574,3.12765957 C11.7659574,3.8668 11.1646723,4.46808511 10.4255319,4.46808511 C9.68639149,4.46808511 9.08510638,3.8668 9.08510638,3.12765957 L9.08510638,2.68085106 L4.61702128,2.68085106 L4.61702128,3.12765957 C4.61702128,3.8668 4.01573617,4.46808511 3.27659574,4.46808511 C2.53745532,4.46808511 1.93617021,3.8668 1.93617021,3.12765957 L1.93617021,2.68085106 L0.893617021,2.68085106 L0.893617021,2.68085106 Z" id="Shape" fill="#F2484B"></path>
                    <rect id="Rectangle-path" fill="#98D9D5" x="0.446808511" y="26.212766" width="27.106383" height="0.893617021"></rect>
                    <rect id="Rectangle-path" fill="#C1E8E6" x="0.446808511" y="24.4255319" width="27.106383" height="0.893617021"></rect>
                    <path d="M0,25.7659574 C0,26.0127149 0.200051064,26.212766 0.446808511,26.212766 L27.5531915,26.212766 C27.8000085,26.212766 28,26.0127149 28,25.7659574 C28,25.5192 27.8000085,25.3191489 27.5531915,25.3191489 L0.446808511,25.3191489 C0.200051064,25.3191489 0,25.5192 0,25.7659574 L0,25.7659574 Z" id="Shape" fill="#082947"></path>
                    <path d="M0,27.5531915 C0,27.7999489 0.200051064,28 0.446808511,28 L27.5531915,28 C27.8000085,28 28,27.7999489 28,27.5531915 C28,27.306434 27.8000085,27.106383 27.5531915,27.106383 L0.446808511,27.106383 C0.200051064,27.106383 0,27.306434 0,27.5531915 L0,27.5531915 Z" id="Shape" fill="#082947"></path>
                    <path d="M27.5531915,1.78723404 L26.0638298,1.78723404 L26.0638298,1.34042553 C26.0638298,0.601285106 25.4624851,0 24.7234043,0 C23.9843234,0 23.3829787,0.601285106 23.3829787,1.34042553 L23.3829787,1.78723404 L18.9148936,1.78723404 L18.9148936,1.34042553 C18.9148936,0.601285106 18.3135489,0 17.5744681,0 C16.8353872,0 16.2340426,0.601285106 16.2340426,1.34042553 L16.2340426,1.78723404 L11.7659574,1.78723404 L11.7659574,1.34042553 C11.7659574,0.601285106 11.1646723,0 10.4255319,0 C9.68639149,0 9.08510638,0.601285106 9.08510638,1.34042553 L9.08510638,1.78723404 L4.61702128,1.78723404 L4.61702128,1.34042553 C4.61702128,0.601285106 4.01573617,0 3.27659574,0 C2.53745532,0 1.93617021,0.601285106 1.93617021,1.34042553 L1.93617021,1.78723404 L0.446808511,1.78723404 C0.200051064,1.78723404 0,1.98728511 0,2.23404255 L0,23.9787234 C0,24.2254809 0.200051064,24.4255319 0.446808511,24.4255319 L27.5531915,24.4255319 C27.8000085,24.4255319 28,24.2254809 28,23.9787234 L28,2.23404255 C28,1.98728511 27.8000085,1.78723404 27.5531915,1.78723404 L27.5531915,1.78723404 Z M3.72340426,1.34042553 L3.72340426,3.12765957 C3.72340426,3.37405957 3.52299574,3.57446809 3.27659574,3.57446809 C3.03019574,3.57446809 2.82978723,3.37405957 2.82978723,3.12765957 L2.82978723,1.34042553 C2.82978723,1.09402553 3.03019574,0.893617021 3.27659574,0.893617021 C3.52299574,0.893617021 3.72340426,1.09402553 3.72340426,1.34042553 L3.72340426,1.34042553 Z M3.27659574,4.46808511 C4.01573617,4.46808511 4.61702128,3.8668 4.61702128,3.12765957 L4.61702128,2.68085106 L9.08510638,2.68085106 L9.08510638,3.12765957 C9.08510638,3.8668 9.68639149,4.46808511 10.4255319,4.46808511 C11.1646723,4.46808511 11.7659574,3.8668 11.7659574,3.12765957 L11.7659574,2.68085106 L16.2340426,2.68085106 L16.2340426,3.12765957 C16.2340426,3.8668 16.8353872,4.46808511 17.5744681,4.46808511 C18.3135489,4.46808511 18.9148936,3.8668 18.9148936,3.12765957 L18.9148936,2.68085106 L23.3829787,2.68085106 L23.3829787,3.12765957 C23.3829787,3.8668 23.9843234,4.46808511 24.7234043,4.46808511 C25.4624851,4.46808511 26.0638298,3.8668 26.0638298,3.12765957 L26.0638298,2.68085106 L27.106383,2.68085106 L27.106383,7.28595745 L0.893617021,7.28595745 L0.893617021,2.68085106 L1.93617021,2.68085106 L1.93617021,3.12765957 C1.93617021,3.8668 2.53745532,4.46808511 3.27659574,4.46808511 L3.27659574,4.46808511 Z M10.8723404,1.34042553 L10.8723404,3.12765957 C10.8723404,3.37405957 10.6719319,3.57446809 10.4255319,3.57446809 C10.1791319,3.57446809 9.9787234,3.37405957 9.9787234,3.12765957 L9.9787234,1.34042553 C9.9787234,1.09402553 10.1791319,0.893617021 10.4255319,0.893617021 C10.6719319,0.893617021 10.8723404,1.09402553 10.8723404,1.34042553 L10.8723404,1.34042553 Z M18.0212766,1.34042553 L18.0212766,3.12765957 C18.0212766,3.37405957 17.8208681,3.57446809 17.5744681,3.57446809 C17.3280681,3.57446809 17.1276596,3.37405957 17.1276596,3.12765957 L17.1276596,1.34042553 C17.1276596,1.09402553 17.3280681,0.893617021 17.5744681,0.893617021 C17.8208681,0.893617021 18.0212766,1.09402553 18.0212766,1.34042553 L18.0212766,1.34042553 Z M25.1702128,1.34042553 L25.1702128,3.12765957 C25.1702128,3.37405957 24.9698043,3.57446809 24.7234043,3.57446809 C24.4770043,3.57446809 24.2765957,3.37405957 24.2765957,3.12765957 L24.2765957,1.34042553 C24.2765957,1.09402553 24.4770043,0.893617021 24.7234043,0.893617021 C24.9698043,0.893617021 25.1702128,1.09402553 25.1702128,1.34042553 L25.1702128,1.34042553 Z M0.893617021,23.5319149 L0.893617021,8.17957447 L27.106383,8.17957447 L27.106383,23.5319149 L0.893617021,23.5319149 L0.893617021,23.5319149 Z" id="Shape" fill="#082947"></path>
                    <path d="M24.5446809,13.5114894 L22.7574468,13.5114894 C22.5106298,13.5114894 22.3106383,13.7115404 22.3106383,13.9582979 C22.3106383,14.2050553 22.5106298,14.4051064 22.7574468,14.4051064 L24.5446809,14.4051064 C24.7914979,14.4051064 24.9914894,14.2050553 24.9914894,13.9582979 C24.9914894,13.7115404 24.7914979,13.5114894 24.5446809,13.5114894 L24.5446809,13.5114894 Z" id="Shape" fill="#F2484B"></path>
                    <path d="M19.7191489,13.5114894 L17.9319149,13.5114894 C17.6850979,13.5114894 17.4851064,13.7115404 17.4851064,13.9582979 C17.4851064,14.2050553 17.6850979,14.4051064 17.9319149,14.4051064 L19.7191489,14.4051064 C19.965966,14.4051064 20.1659574,14.2050553 20.1659574,13.9582979 C20.1659574,13.7115404 19.965966,13.5114894 19.7191489,13.5114894 L19.7191489,13.5114894 Z" id="Shape" fill="#082947"></path>
                    <path d="M14.893617,13.5114894 L13.106383,13.5114894 C12.8596255,13.5114894 12.6595745,13.7115404 12.6595745,13.9582979 C12.6595745,14.2050553 12.8596255,14.4051064 13.106383,14.4051064 L14.893617,14.4051064 C15.140434,14.4051064 15.3404255,14.2050553 15.3404255,13.9582979 C15.3404255,13.7115404 15.140434,13.5114894 14.893617,13.5114894 L14.893617,13.5114894 Z" id="Shape" fill="#082947"></path>
                    <path d="M10.0680851,13.5114894 L8.28085106,13.5114894 C8.03409362,13.5114894 7.83404255,13.7115404 7.83404255,13.9582979 C7.83404255,14.2050553 8.03409362,14.4051064 8.28085106,14.4051064 L10.0680851,14.4051064 C10.3148426,14.4051064 10.5148936,14.2050553 10.5148936,13.9582979 C10.5148936,13.7115404 10.3148426,13.5114894 10.0680851,13.5114894 L10.0680851,13.5114894 Z" id="Shape" fill="#082947"></path>
                    <path d="M5.24255319,13.5114894 L3.45531915,13.5114894 C3.2085617,13.5114894 3.00851064,13.7115404 3.00851064,13.9582979 C3.00851064,14.2050553 3.2085617,14.4051064 3.45531915,14.4051064 L5.24255319,14.4051064 C5.48931064,14.4051064 5.6893617,14.2050553 5.6893617,13.9582979 C5.6893617,13.7115404 5.48931064,13.5114894 5.24255319,13.5114894 L5.24255319,13.5114894 Z" id="Shape" fill="#082947"></path>
                    <path d="M19.7191489,16.7285106 L17.9319149,16.7285106 C17.6850979,16.7285106 17.4851064,16.9285617 17.4851064,17.1753191 C17.4851064,17.4220766 17.6850979,17.6221277 17.9319149,17.6221277 L19.7191489,17.6221277 C19.965966,17.6221277 20.1659574,17.4220766 20.1659574,17.1753191 C20.1659574,16.9285617 19.965966,16.7285106 19.7191489,16.7285106 L19.7191489,16.7285106 Z" id="Shape" fill="#082947"></path>
                    <path d="M14.893617,16.7285106 L13.106383,16.7285106 C12.8596255,16.7285106 12.6595745,16.9285617 12.6595745,17.1753191 C12.6595745,17.4220766 12.8596255,17.6221277 13.106383,17.6221277 L14.893617,17.6221277 C15.140434,17.6221277 15.3404255,17.4220766 15.3404255,17.1753191 C15.3404255,16.9285617 15.140434,16.7285106 14.893617,16.7285106 L14.893617,16.7285106 Z" id="Shape" fill="#082947"></path>
                    <path d="M10.0680851,16.7285106 L8.28085106,16.7285106 C8.03409362,16.7285106 7.83404255,16.9285617 7.83404255,17.1753191 C7.83404255,17.4220766 8.03409362,17.6221277 8.28085106,17.6221277 L10.0680851,17.6221277 C10.3148426,17.6221277 10.5148936,17.4220766 10.5148936,17.1753191 C10.5148936,16.9285617 10.3148426,16.7285106 10.0680851,16.7285106 L10.0680851,16.7285106 Z" id="Shape" fill="#082947"></path>
                    <path d="M5.24255319,16.7285106 L3.45531915,16.7285106 C3.2085617,16.7285106 3.00851064,16.9285617 3.00851064,17.1753191 C3.00851064,17.4220766 3.2085617,17.6221277 3.45531915,17.6221277 L5.24255319,17.6221277 C5.48931064,17.6221277 5.6893617,17.4220766 5.6893617,17.1753191 C5.6893617,16.9285617 5.48931064,16.7285106 5.24255319,16.7285106 L5.24255319,16.7285106 Z" id="Shape" fill="#082947"></path>
                    <path d="M19.7191489,19.9455319 L17.9319149,19.9455319 C17.6850979,19.9455319 17.4851064,20.145583 17.4851064,20.3923404 C17.4851064,20.6390979 17.6850979,20.8391489 17.9319149,20.8391489 L19.7191489,20.8391489 C19.965966,20.8391489 20.1659574,20.6390979 20.1659574,20.3923404 C20.1659574,20.145583 19.965966,19.9455319 19.7191489,19.9455319 L19.7191489,19.9455319 Z" id="Shape" fill="#082947"></path>
                    <path d="M24.5446809,16.7285106 L22.7574468,16.7285106 C22.5106298,16.7285106 22.3106383,16.9285617 22.3106383,17.1753191 C22.3106383,17.4220766 22.5106298,17.6221277 22.7574468,17.6221277 L24.5446809,17.6221277 C24.7914979,17.6221277 24.9914894,17.4220766 24.9914894,17.1753191 C24.9914894,16.9285617 24.7914979,16.7285106 24.5446809,16.7285106 L24.5446809,16.7285106 Z" id="Shape" fill="#F2484B"></path>
                    <path d="M24.5446809,19.9455319 L22.7574468,19.9455319 C22.5106298,19.9455319 22.3106383,20.145583 22.3106383,20.3923404 C22.3106383,20.6390979 22.5106298,20.8391489 22.7574468,20.8391489 L24.5446809,20.8391489 C24.7914979,20.8391489 24.9914894,20.6390979 24.9914894,20.3923404 C24.9914894,20.145583 24.7914979,19.9455319 24.5446809,19.9455319 L24.5446809,19.9455319 Z" id="Shape" fill="#F2484B"></path>
                    <path d="M14.893617,19.9455319 L13.106383,19.9455319 C12.8596255,19.9455319 12.6595745,20.145583 12.6595745,20.3923404 C12.6595745,20.6390979 12.8596255,20.8391489 13.106383,20.8391489 L14.893617,20.8391489 C15.140434,20.8391489 15.3404255,20.6390979 15.3404255,20.3923404 C15.3404255,20.145583 15.140434,19.9455319 14.893617,19.9455319 L14.893617,19.9455319 Z" id="Shape" fill="#082947"></path>
                    <path d="M10.0680851,19.9455319 L8.28085106,19.9455319 C8.03409362,19.9455319 7.83404255,20.145583 7.83404255,20.3923404 C7.83404255,20.6390979 8.03409362,20.8391489 8.28085106,20.8391489 L10.0680851,20.8391489 C10.3148426,20.8391489 10.5148936,20.6390979 10.5148936,20.3923404 C10.5148936,20.145583 10.3148426,19.9455319 10.0680851,19.9455319 L10.0680851,19.9455319 Z" id="Shape" fill="#082947"></path>
                    <path d="M5.24255319,19.9455319 L3.45531915,19.9455319 C3.2085617,19.9455319 3.00851064,20.145583 3.00851064,20.3923404 C3.00851064,20.6390979 3.2085617,20.8391489 3.45531915,20.8391489 L5.24255319,20.8391489 C5.48931064,20.8391489 5.6893617,20.6390979 5.6893617,20.3923404 C5.6893617,20.145583 5.48931064,19.9455319 5.24255319,19.9455319 L5.24255319,19.9455319 Z" id="Shape" fill="#082947"></path>
                    <path d="M24.5446809,10.2944681 L22.7574468,10.2944681 C22.5106298,10.2944681 22.3106383,10.4945191 22.3106383,10.7412766 C22.3106383,10.988034 22.5106298,11.1880851 22.7574468,11.1880851 L24.5446809,11.1880851 C24.7914979,11.1880851 24.9914894,10.988034 24.9914894,10.7412766 C24.9914894,10.4945191 24.7914979,10.2944681 24.5446809,10.2944681 L24.5446809,10.2944681 Z" id="Shape" fill="#F2484B"></path>
                    <path d="M19.7191489,10.2944681 L17.9319149,10.2944681 C17.6850979,10.2944681 17.4851064,10.4945191 17.4851064,10.7412766 C17.4851064,10.988034 17.6850979,11.1880851 17.9319149,11.1880851 L19.7191489,11.1880851 C19.965966,11.1880851 20.1659574,10.988034 20.1659574,10.7412766 C20.1659574,10.4945191 19.965966,10.2944681 19.7191489,10.2944681 L19.7191489,10.2944681 Z" id="Shape" fill="#082947"></path>
                    <path d="M14.893617,10.2944681 L13.106383,10.2944681 C12.8596255,10.2944681 12.6595745,10.4945191 12.6595745,10.7412766 C12.6595745,10.988034 12.8596255,11.1880851 13.106383,11.1880851 L14.893617,11.1880851 C15.140434,11.1880851 15.3404255,10.988034 15.3404255,10.7412766 C15.3404255,10.4945191 15.140434,10.2944681 14.893617,10.2944681 L14.893617,10.2944681 Z" id="Shape" fill="#082947"></path>
                    <path d="M10.0680851,10.2944681 L8.28085106,10.2944681 C8.03409362,10.2944681 7.83404255,10.4945191 7.83404255,10.7412766 C7.83404255,10.988034 8.03409362,11.1880851 8.28085106,11.1880851 L10.0680851,11.1880851 C10.3148426,11.1880851 10.5148936,10.988034 10.5148936,10.7412766 C10.5148936,10.4945191 10.3148426,10.2944681 10.0680851,10.2944681 L10.0680851,10.2944681 Z" id="Shape" fill="#082947"></path>
                    <path d="M5.24255319,10.2944681 L3.45531915,10.2944681 C3.2085617,10.2944681 3.00851064,10.4945191 3.00851064,10.7412766 C3.00851064,10.988034 3.2085617,11.1880851 3.45531915,11.1880851 L5.24255319,11.1880851 C5.48931064,11.1880851 5.6893617,10.988034 5.6893617,10.7412766 C5.6893617,10.4945191 5.48931064,10.2944681 5.24255319,10.2944681 L5.24255319,10.2944681 Z" id="Shape" fill="#082947"></path>
                </g>
            </g>
        </g>
    </g>
</svg>