<?xml version="1.0" encoding="UTF-8" standalone="no"?>
<svg width="21px" height="21px" viewBox="0 0 21 21" version="1.1" xmlns="http://www.w3.org/2000/svg" xmlns:xlink="http://www.w3.org/1999/xlink">
    <!-- Generator: Sketch 39 (31667) - http://www.bohemiancoding.com/sketch -->
    <title>exit</title>
    <desc>Created with Sketch.</desc>
    <defs></defs>
    <g id="Symbols" stroke="none" stroke-width="1" fill="none" fill-rule="evenodd">
        <g id="Header" transform="translate(-1370.000000, -20.000000)" fill="#FFFFFF">
            <g id="exit">
                <g transform="translate(1370.000000, 20.000000)">
                    <g id="Capa_1">
                        <g id="Group">
                            <path d="M20.2073455,9.30949091 C20.2459091,9.21632727 20.2459091,9.11132727 20.2073455,9.01778182 C20.1878727,8.97081818 20.1596182,8.92843636 20.1244909,8.89292727 L15.5430545,4.31187273 C15.3937636,4.16258182 15.1524545,4.16258182 15.0031636,4.31187273 C14.8538727,4.46116364 14.8538727,4.70247273 15.0031636,4.85176364 L18.9332182,8.78181818 L10.6912909,8.78181818 C10.4801455,8.78181818 10.3094727,8.95249091 10.3094727,9.16363636 C10.3094727,9.37478182 10.4801455,9.54545455 10.6912909,9.54545455 L18.9332182,9.54545455 L15.0031636,13.4755091 C14.8538727,13.6248 14.8538727,13.8661091 15.0031636,14.0154 C15.0776182,14.0898545 15.1753636,14.1272727 15.2731091,14.1272727 C15.3708545,14.1272727 15.4686,14.0898545 15.5430545,14.0154 L20.1244909,9.43396364 C20.1596182,9.39883636 20.1878727,9.35645455 20.2073455,9.30949091 L20.2073455,9.30949091 Z" id="Shape"></path>
                            <path d="M13.3640182,11.0727273 C13.1528727,11.0727273 12.9822,11.2434 12.9822,11.4545455 L12.9822,17.5636364 L9.16401818,17.5636364 L9.16401818,3.05454545 C9.16401818,2.88807273 9.05634545,2.74107273 8.89789091,2.69067273 L2.84149091,0.763636364 L12.9822,0.763636364 L12.9822,6.87272727 C12.9822,7.08387273 13.1528727,7.25454545 13.3640182,7.25454545 C13.5751636,7.25454545 13.7458364,7.08387273 13.7458364,6.87272727 L13.7458364,0.381818182 C13.7458364,0.170672727 13.5751636,0 13.3640182,0 L0.3822,0 C0.369981818,0 0.359290909,0.00572727273 0.347454545,0.00687272727 C0.326072727,0.00878181818 0.307363636,0.0137454545 0.287127273,0.0190909091 C0.251236364,0.0286363636 0.219163636,0.0416181818 0.188236364,0.0603272727 C0.178309091,0.0664363636 0.166472727,0.0664363636 0.156927273,0.0733090909 C0.145090909,0.0820909091 0.135927273,0.0931636364 0.125236364,0.102709091 C0.118745455,0.108818182 0.111872727,0.114163636 0.105763636,0.120654545 C0.0767454545,0.151963636 0.0530727273,0.186709091 0.0355090909,0.224890909 C0.0320727273,0.232527273 0.0301636364,0.240163636 0.0271090909,0.2478 C0.0110727273,0.290563636 0.000381818181,0.335236364 0.000381818181,0.381818182 L0.000381818181,17.9454545 C0.000381818181,17.9931818 0.0114545455,18.0382364 0.0278727273,18.081 C0.0332181818,18.0951273 0.0412363636,18.1069636 0.0481090909,18.1203273 C0.0622363636,18.1474364 0.0782727273,18.1722545 0.0985090909,18.1951636 C0.109581818,18.2073818 0.120654545,18.2184545 0.132872727,18.2295273 C0.155018182,18.249 0.179836364,18.2650364 0.206563636,18.2791636 C0.220690909,18.2868 0.233672727,18.2948182 0.248945455,18.3005455 C0.255436364,18.3028364 0.2604,18.3074182 0.266890909,18.3097091 L8.66689091,20.9824364 C8.70430909,20.9938909 8.74325455,21 8.7822,21 C8.86238182,21 8.94141818,20.9748 9.00747273,20.9266909 C9.10598182,20.8549091 9.16401818,20.7403636 9.16401818,20.6181818 L9.16401818,18.3272727 L13.3640182,18.3272727 C13.5751636,18.3272727 13.7458364,18.1566 13.7458364,17.9454545 L13.7458364,11.4545455 C13.7458364,11.2434 13.5747818,11.0727273 13.3640182,11.0727273 Z" id="Shape"></path>
                        </g>
                    </g>
                </g>
            </g>
        </g>
    </g>
</svg>