<?xml version="1.0" encoding="UTF-8" standalone="no"?>
<svg width="25px" height="28px" viewBox="0 0 25 28" version="1.1" xmlns="http://www.w3.org/2000/svg" xmlns:xlink="http://www.w3.org/1999/xlink">
    <!-- Generator: Sketch 39.1 (31720) - http://www.bohemiancoding.com/sketch -->
    <title>file</title>
    <desc>Created with Sketch.</desc>
    <defs></defs>
    <g id="Page-1" stroke="none" stroke-width="1" fill="none" fill-rule="evenodd">
        <g id="file">
            <g id="Capa_1">
                <g id="Group">
                    <path d="M23.8372936,27.106383 L23.9862298,27.106383 L23.9862298,2.68085106 L23.8372936,2.68085106 C23.5904766,2.68085106 23.3904851,2.48085957 23.3904851,2.23404255 L22.4968681,2.23404255 L22.4968681,27.5531915 L23.3904851,27.5531915 C23.3904851,27.3063745 23.5904766,27.106383 23.8372936,27.106383 L23.8372936,27.106383 Z" id="Shape" fill="#98D9D5"></path>
                    <path d="M16.8330043,27.106383 L21.6032511,27.106383 L21.6032511,2.68085106 L21.4543149,2.68085106 C21.2074979,2.68085106 21.0075064,2.48085957 21.0075064,2.23404255 L20.1138894,2.23404255 L20.1138894,22.5450043 C20.1138894,22.6896511 20.0487745,22.8149362 19.9472,22.8967915 L15.2908596,27.5531915 L16.3861957,27.5531915 C16.3861957,27.3063745 16.5861872,27.106383 16.8330043,27.106383 L16.8330043,27.106383 Z" id="Shape" fill="#C1E8E6"></path>
                    <polygon id="Shape" fill="#98D9D5" points="15.109634 22.9957447 15.109634 26.4706043 18.584434 22.9957447"></polygon>
                    <path d="M14.216017,22.5489362 C14.216017,22.3021191 14.4160085,22.1021277 14.6628255,22.1021277 L19.2202723,22.1021277 L19.2202723,2.68085106 L6.85225532,2.68085106 L6.85225532,5.80851064 C6.85225532,6.7118383 6.11728511,7.44680851 5.21395745,7.44680851 C4.31062979,7.44680851 3.57565957,6.7118383 3.57565957,5.80851064 L3.57565957,4.0212766 C3.57565957,3.77445957 3.77565106,3.57446809 4.02246809,3.57446809 C4.26928511,3.57446809 4.4692766,3.77445957 4.4692766,4.0212766 L4.4692766,5.80851064 C4.4692766,6.21915745 4.80331064,6.55319149 5.21395745,6.55319149 C5.62460426,6.55319149 5.9586383,6.21915745 5.9586383,5.80851064 L5.9586383,2.68085106 L0.915897872,2.68085106 L0.915897872,27.106383 L14.216017,27.106383 L14.216017,22.5489362 L14.216017,22.5489362 Z M4.04355745,8.96595745 L16.0926128,8.96595745 C16.3394298,8.96595745 16.5394213,9.16594894 16.5394213,9.41276596 C16.5394213,9.65958298 16.3394298,9.85957447 16.0926128,9.85957447 L4.04355745,9.85957447 C3.79674043,9.85957447 3.59674894,9.65958298 3.59674894,9.41276596 C3.59674894,9.16594894 3.79674043,8.96595745 4.04355745,8.96595745 L4.04355745,8.96595745 Z M4.04355745,11.6468085 L16.0926128,11.6468085 C16.3394298,11.6468085 16.5394213,11.8468 16.5394213,12.093617 C16.5394213,12.340434 16.3394298,12.5404255 16.0926128,12.5404255 L4.04355745,12.5404255 C3.79674043,12.5404255 3.59674894,12.340434 3.59674894,12.093617 C3.59674894,11.8468 3.79674043,11.6468085 4.04355745,11.6468085 L4.04355745,11.6468085 Z M4.04355745,14.3276596 L16.0926128,14.3276596 C16.3394298,14.3276596 16.5394213,14.5276511 16.5394213,14.7744681 C16.5394213,15.0212851 16.3394298,15.2212766 16.0926128,15.2212766 L4.04355745,15.2212766 C3.79674043,15.2212766 3.59674894,15.0212851 3.59674894,14.7744681 C3.59674894,14.5276511 3.79674043,14.3276596 4.04355745,14.3276596 L4.04355745,14.3276596 Z M4.04355745,17.0085106 L16.0926128,17.0085106 C16.3394298,17.0085106 16.5394213,17.2085021 16.5394213,17.4553191 C16.5394213,17.7021362 16.3394298,17.9021277 16.0926128,17.9021277 L4.04355745,17.9021277 C3.79674043,17.9021277 3.59674894,17.7021362 3.59674894,17.4553191 C3.59674894,17.2085021 3.79674043,17.0085106 4.04355745,17.0085106 L4.04355745,17.0085106 Z M3.59674894,20.1361702 C3.59674894,19.8893532 3.79674043,19.6893617 4.04355745,19.6893617 L16.0926128,19.6893617 C16.3394298,19.6893617 16.5394213,19.8893532 16.5394213,20.1361702 C16.5394213,20.3829872 16.3394298,20.5829787 16.0926128,20.5829787 L4.04355745,20.5829787 C3.79674043,20.5829787 3.59674894,20.3829872 3.59674894,20.1361702 L3.59674894,20.1361702 Z" id="Shape" fill="#FFFFFF"></path>
                    <path d="M20.1138894,22.5489362 L20.1138894,2.23404255 C20.1138894,1.98722553 19.9138979,1.78723404 19.6670809,1.78723404 L6.74031489,1.78723404 C6.42153191,0.753438298 5.45731915,0 4.32034043,0 C3.20165106,0 2.22278298,0.745514894 1.90078298,1.78723404 L0.469089362,1.78723404 C0.22227234,1.78723404 0.0222808511,1.98722553 0.0222808511,2.23404255 L0.0222808511,27.5531915 C0.0222808511,27.8000085 0.22227234,28 0.469089362,28 L14.6589532,28 C14.8034213,28 14.9286468,27.9349447 15.0105617,27.8335489 L15.2909191,27.5531915 L19.9472596,22.8967915 C20.0487745,22.8149362 20.1138894,22.6895915 20.1138894,22.5489362 L20.1138894,22.5489362 Z M0.915897872,2.68085106 L5.9586383,2.68085106 L5.9586383,5.80851064 C5.9586383,6.21915745 5.62460426,6.55319149 5.21395745,6.55319149 C4.80331064,6.55319149 4.4692766,6.21915745 4.4692766,5.80851064 L4.4692766,4.0212766 C4.4692766,3.77445957 4.26928511,3.57446809 4.02246809,3.57446809 C3.77565106,3.57446809 3.57565957,3.77445957 3.57565957,4.0212766 L3.57565957,5.80851064 C3.57565957,6.7118383 4.31062979,7.44680851 5.21395745,7.44680851 C6.11728511,7.44680851 6.85225532,6.7118383 6.85225532,5.80851064 L6.85225532,2.68085106 L19.2202723,2.68085106 L19.2202723,22.1021277 L14.6628255,22.1021277 C14.4160085,22.1021277 14.216017,22.3021191 14.216017,22.5489362 L14.216017,27.106383 L0.915897872,27.106383 L0.915897872,2.68085106 L0.915897872,2.68085106 Z M15.109634,22.9957447 L18.584434,22.9957447 L15.109634,26.4706043 L15.109634,22.9957447 L15.109634,22.9957447 Z M4.32034043,0.893617021 C4.95558298,0.893617021 5.50718298,1.25731915 5.77884255,1.78723404 L2.86171915,1.78723404 C3.136,1.2541617 3.69427234,0.893617021 4.32034043,0.893617021 L4.32034043,0.893617021 Z" id="Shape" fill="#082947"></path>
                    <path d="M16.0926128,20.5829787 C16.3394298,20.5829787 16.5394213,20.3829872 16.5394213,20.1361702 C16.5394213,19.8893532 16.3394298,19.6893617 16.0926128,19.6893617 L4.04355745,19.6893617 C3.79674043,19.6893617 3.59674894,19.8893532 3.59674894,20.1361702 C3.59674894,20.3829872 3.79674043,20.5829787 4.04355745,20.5829787 L16.0926128,20.5829787 L16.0926128,20.5829787 Z" id="Shape" fill="#082947"></path>
                    <path d="M4.04355745,17.9021277 L16.0926128,17.9021277 C16.3394298,17.9021277 16.5394213,17.7021362 16.5394213,17.4553191 C16.5394213,17.2085021 16.3394298,17.0085106 16.0926128,17.0085106 L4.04355745,17.0085106 C3.79674043,17.0085106 3.59674894,17.2085021 3.59674894,17.4553191 C3.59674894,17.7021362 3.79674043,17.9021277 4.04355745,17.9021277 L4.04355745,17.9021277 Z" id="Shape" fill="#082947"></path>
                    <path d="M4.04355745,15.2212766 L16.0926128,15.2212766 C16.3394298,15.2212766 16.5394213,15.0212851 16.5394213,14.7744681 C16.5394213,14.5276511 16.3394298,14.3276596 16.0926128,14.3276596 L4.04355745,14.3276596 C3.79674043,14.3276596 3.59674894,14.5276511 3.59674894,14.7744681 C3.59674894,15.0212851 3.79674043,15.2212766 4.04355745,15.2212766 L4.04355745,15.2212766 Z" id="Shape" fill="#082947"></path>
                    <path d="M4.04355745,12.5404255 L16.0926128,12.5404255 C16.3394298,12.5404255 16.5394213,12.340434 16.5394213,12.093617 C16.5394213,11.8468 16.3394298,11.6468085 16.0926128,11.6468085 L4.04355745,11.6468085 C3.79674043,11.6468085 3.59674894,11.8468 3.59674894,12.093617 C3.59674894,12.340434 3.79674043,12.5404255 4.04355745,12.5404255 L4.04355745,12.5404255 Z" id="Shape" fill="#082947"></path>
                    <path d="M4.04355745,9.85957447 L16.0926128,9.85957447 C16.3394298,9.85957447 16.5394213,9.65958298 16.5394213,9.41276596 C16.5394213,9.16594894 16.3394298,8.96595745 16.0926128,8.96595745 L4.04355745,8.96595745 C3.79674043,8.96595745 3.59674894,9.16594894 3.59674894,9.41276596 C3.59674894,9.65958298 3.79674043,9.85957447 4.04355745,9.85957447 L4.04355745,9.85957447 Z" id="Shape" fill="#082947"></path>
                    <path d="M22.0500596,1.78723404 L21.4543149,1.78723404 C21.2074979,1.78723404 21.0075064,1.98722553 21.0075064,2.23404255 C21.0075064,2.48085957 21.2074979,2.68085106 21.4543149,2.68085106 L21.6032511,2.68085106 L21.6032511,27.106383 L16.8330043,27.106383 C16.5861872,27.106383 16.3861957,27.3063745 16.3861957,27.5531915 C16.3861957,27.8000085 16.5861872,28 16.8330043,28 L22.0500596,28 C22.2968766,28 22.4968681,27.8000085 22.4968681,27.5531915 L22.4968681,2.23404255 C22.4968681,1.98722553 22.2968766,1.78723404 22.0500596,1.78723404 L22.0500596,1.78723404 Z" id="Shape" fill="#082947"></path>
                    <path d="M24.4330383,1.78723404 L23.8372936,1.78723404 C23.5904766,1.78723404 23.3904851,1.98722553 23.3904851,2.23404255 C23.3904851,2.48085957 23.5904766,2.68085106 23.8372936,2.68085106 L23.9862298,2.68085106 L23.9862298,27.106383 L23.8372936,27.106383 C23.5904766,27.106383 23.3904851,27.3063745 23.3904851,27.5531915 C23.3904851,27.8000085 23.5904766,28 23.8372936,28 L24.4330383,28 C24.6798553,28 24.8798468,27.8000085 24.8798468,27.5531915 L24.8798468,2.23404255 C24.8798468,1.98722553 24.6798553,1.78723404 24.4330383,1.78723404 L24.4330383,1.78723404 Z" id="Shape" fill="#082947"></path>
                </g>
            </g>
        </g>
    </g>
</svg>