<?xml version="1.0" encoding="UTF-8" standalone="no"?>
<svg width="20px" height="20px" viewBox="0 0 20 20" version="1.1" xmlns="http://www.w3.org/2000/svg" xmlns:xlink="http://www.w3.org/1999/xlink">
    <!-- Generator: Sketch 39 (31667) - http://www.bohemiancoding.com/sketch -->
    <title>question-mark-button</title>
    <desc>Created with Sketch.</desc>
    <defs></defs>
    <g id="Student-Homepage" stroke="none" stroke-width="1" fill="none" fill-rule="evenodd">
        <g id="STUDENT-HOMEPAGE" transform="translate(-1314.000000, -105.000000)" fill="#4A4A4A">
            <g id="question-mark-button" transform="translate(1314.000000, 105.000000)">
                <g id="Capa_1">
                    <g id="Group">
                        <path d="M10.000719,20 L10.000719,19.5430065 L10,20 C4.48594771,20 0,15.5138889 0,9.9998366 C0,4.48594771 4.48594771,0 10,0 C15.5140523,0 20,4.48594771 20,9.9998366 C20,15.5138889 15.5142157,20 10.000719,20 L10.000719,20 Z M10,0.914052288 C4.98993464,0.914052288 0.914052288,4.98996732 0.914052288,9.9998366 C0.914052288,15.0098693 4.98993464,19.0859477 10,19.0859477 L10.000719,19.0859477 C15.0101961,19.0859477 19.0859477,15.0098366 19.0859477,9.99980392 C19.0859477,4.98993464 15.0100654,0.914052288 10,0.914052288 L10,0.914052288 Z" id="Shape"></path>
                        <g transform="translate(7.222222, 4.640523)">
                            <path d="M2.77777778,7.46434641 C2.5253268,7.46434641 2.32075163,7.25977124 2.32075163,7.00732026 L2.32075163,5.07284314 C2.32075163,4.82039216 2.5253268,4.61581699 2.77777778,4.61581699 C3.78924837,4.61581699 4.6120915,3.79300654 4.6120915,2.78153595 C4.6120915,1.76986928 3.78924837,0.946699346 2.77777778,0.946699346 C1.76630719,0.946699346 0.943300654,1.76986928 0.943300654,2.78153595 C0.943300654,3.03398693 0.73872549,3.23856209 0.48627451,3.23856209 C0.233823529,3.23856209 0.029248366,3.03398693 0.029248366,2.78153595 C0.029248366,1.26588235 1.26228758,0.0326470588 2.77777778,0.0326470588 C4.29326797,0.0326470588 5.52614379,1.26588235 5.52614379,2.78153595 C5.52614379,4.14127451 4.53349673,5.27359477 3.2348366,5.49186275 L3.2348366,7.00735294 C3.23477124,7.25977124 3.03026144,7.46434641 2.77777778,7.46434641 L2.77777778,7.46434641 Z" id="Shape"></path>
                            <ellipse id="Oval" cx="2.77761438" cy="9.53408497" rx="0.752614379" ry="0.752614379"></ellipse>
                        </g>
                    </g>
                </g>
            </g>
        </g>
    </g>
</svg>