<?xml version="1.0" encoding="UTF-8" standalone="no"?>
<svg width="16px" height="15px" viewBox="0 0 16 15" version="1.1" xmlns="http://www.w3.org/2000/svg" xmlns:xlink="http://www.w3.org/1999/xlink">
    <!-- Generator: Sketch 39 (31667) - http://www.bohemiancoding.com/sketch -->
    <title>heart</title>
    <desc>Created with Sketch.</desc>
    <defs></defs>
    <g id="Student-Homepage" stroke="none" stroke-width="1" fill="none" fill-rule="evenodd">
        <g id="STUDENT-HOMEPAGE" transform="translate(-393.000000, -463.000000)">
            <g id="Post-2" transform="translate(393.000000, 463.000000)">
                <g id="heart">
                    <g id="Capa_1">
                        <g id="Group">
                            <path d="M11.385505,0.971109626 C10.2571881,0.971109626 9.09837624,1.51893048 8.36138614,2.40084225 C8.2710495,2.50889037 8.13837624,2.57121658 7.99861386,2.57121658 L7.99853465,2.57121658 C7.85877228,2.57117647 7.7260198,2.50885027 7.63576238,2.40080214 C6.89912871,1.51893048 5.74011881,0.971109626 4.61116832,0.971109626 C2.55841584,0.971109626 0.95049505,2.59965241 0.95049505,4.67867647 C0.95049505,7.30275401 3.23005941,9.47326203 7.25912871,13.0837701 C7.26609901,13.0899866 7.27291089,13.0964439 7.27948515,13.1031016 L7.99853465,13.8279947 L8.71742574,13.1031016 C8.72407921,13.0964439 8.73089109,13.0899866 8.73786139,13.0837299 C12.7670099,9.47378342 15.0465743,7.30355615 15.0465743,4.67867647 C15.0465743,2.59965241 13.4384158,0.971109626 11.385505,0.971109626 L11.385505,0.971109626 Z M4.89441584,2.67156417 C3.6200396,2.67156417 2.62182178,3.68262032 2.62182178,4.97338235 C2.62182178,5.23921123 2.4090297,5.45466578 2.14657426,5.45466578 C1.88411881,5.45466578 1.67132673,5.23921123 1.67132673,4.97338235 C1.67132673,3.14290107 3.08708911,1.70899733 4.89441584,1.70899733 C5.15687129,1.70899733 5.36966337,1.92449198 5.36966337,2.19028075 C5.36966337,2.45610963 5.15687129,2.67156417 4.89441584,2.67156417 L4.89441584,2.67156417 Z" id="Shape"></path>
                            <path d="M11.385505,0.00854278075 C10.1389703,0.00854278075 8.90764356,0.517459893 7.99857426,1.3903877 C7.08986139,0.5175 5.85817822,0.00854278075 4.61112871,0.00854278075 C2.02546535,0.00854278075 0,2.05993316 0,4.67867647 C0,6.14426471 0.596,7.56164439 1.87560396,9.13921123 C2.99192079,10.5155214 4.54609901,11.9377941 6.61881188,13.7952674 L7.66328713,14.8482754 C7.7560396,14.9417246 7.87730693,14.9884893 7.99861386,14.9884893 C8.11992079,14.9884893 8.24118812,14.9417246 8.33394059,14.8482353 L9.37817822,13.7952273 C11.4507327,11.9382353 13.0047129,10.5162433 14.1216634,9.13921123 C15.4011485,7.5617246 15.9970693,6.14434492 15.9970693,4.67867647 C15.9970693,2.05993316 13.9714455,0.00854278075 11.385505,0.00854278075 L11.385505,0.00854278075 Z M8.73786139,13.0837299 C8.73089109,13.0899866 8.72407921,13.0964439 8.71742574,13.1031016 L7.99853465,13.8279947 L7.27948515,13.1031016 C7.27291089,13.0964439 7.26609901,13.0899866 7.25912871,13.0837701 C3.23005941,9.47326203 0.95049505,7.3027139 0.95049505,4.67867647 C0.95049505,2.59965241 2.55841584,0.971149733 4.61116832,0.971149733 C5.74011881,0.971149733 6.89912871,1.51897059 7.63576238,2.40084225 C7.7260198,2.50889037 7.85877228,2.57121658 7.99853465,2.57125668 L7.99861386,2.57125668 C8.13837624,2.57125668 8.2710495,2.50893048 8.36138614,2.40088235 C9.09837624,1.51897059 10.2571881,0.971149733 11.385505,0.971149733 C13.4384158,0.971149733 15.0465347,2.59965241 15.0465347,4.67867647 C15.0465743,7.30355615 12.7670099,9.47378342 8.73786139,13.0837299 L8.73786139,13.0837299 Z" id="Shape" fill="#4990E2"></path>
                            <path d="M1.67132673,4.97338235 C1.67132673,5.23921123 1.88411881,5.45466578 2.14657426,5.45466578 C2.4090297,5.45466578 2.62182178,5.23921123 2.62182178,4.97338235 C2.62182178,3.68262032 3.6200396,2.67156417 4.89441584,2.67156417 C5.15687129,2.67156417 5.36966337,2.45610963 5.36966337,2.19028075 C5.36966337,1.92449198 5.15687129,1.70899733 4.89441584,1.70899733 C3.08708911,1.70899733 1.67132673,3.14290107 1.67132673,4.97338235 Z" id="Shape" fill="#4990E2"></path>
                        </g>
                    </g>
                </g>
            </g>
        </g>
    </g>
</svg>