<?xml version="1.0" encoding="UTF-8" standalone="no"?>
<svg width="21px" height="40px" viewBox="0 0 21 40" version="1.1" xmlns="http://www.w3.org/2000/svg" xmlns:xlink="http://www.w3.org/1999/xlink">
    <!-- Generator: Sketch 39 (31667) - http://www.bohemiancoding.com/sketch -->
    <title>Logo</title>
    <desc>Created with Sketch.</desc>
    <defs></defs>
    <g id="Symbols" stroke="none" stroke-width="1" fill="none" fill-rule="evenodd">
        <g id="Logo" fill="#FFFFFF">
            <g transform="translate(10.500000, 20.000000) scale(1, -1) translate(-10.500000, -20.000000) ">
                <path d="M10.2932241,39.9951026 L10.2932241,30.2896443 C10.2932241,27.9293224 10.3075943,24.9172051 10.2768769,22.5568832 C10.2768769,22.5568832 10.022747,22.4566554 9.89852716,22.371314 C9.05951282,21.7201004 8.4729888,20.9446568 8.7618385,20.0834353 C9.01890991,19.3101738 9.78086552,18.7931305 10.6146719,18.8190724 C11.4587978,18.8500087 12.1898431,19.4640793 12.384033,20.3046928 C12.5784158,21.1504461 11.9013309,21.9370908 10.9731059,22.4530187 C10.9019785,22.4912769 10.8341784,22.5388936 10.7447748,22.5947049 L10.7447748,40 C13.4035905,33.2551148 15.8819112,26.4540788 21,21.2919869 C15.4983053,13.8171412 15.0820049,13.1452226 14.5987242,11 L6.4834943,11 C5.24558769,15.0423246 2.42325126,18.0581272 0,21.3344152 C3.66530497,24.7977755 5.68156267,29.2992469 7.62481228,33.8347579 C8.45143357,35.7680331 9.41317287,37.7530465 10.1739711,39.7132818 L10.2932241,39.9951026 Z" id="path22"></path>
                <polygon id="path26" points="16.4884527 9 5.46044678 9 5 9.94236972 17 9.94236972"></polygon>
                <polygon id="path28" points="7 3 6 3 6 8 7 8"></polygon>
                <polygon id="path30" points="9.5 3 8.5 3 8.5 8 9.5 8"></polygon>
                <polygon id="path32" points="12.3000031 3 11.3000031 3 11.3000031 8 12.3000031 8"></polygon>
                <polygon id="path34" points="15 3 14 3 14 8 15 8"></polygon>
                <polygon id="path36" points="17 0 4 0 4 1 17 1"></polygon>
                <polygon id="path38" points="16 1.5 5 1.5 5 2.44241766 16 2.44241766"></polygon>
            </g>
        </g>
    </g>
</svg>