<?xml version="1.0" encoding="UTF-8" standalone="no"?>
<svg width="25px" height="21px" viewBox="0 0 25 21" version="1.1" xmlns="http://www.w3.org/2000/svg" xmlns:xlink="http://www.w3.org/1999/xlink">
    <!-- Generator: Sketch 39 (31667) - http://www.bohemiancoding.com/sketch -->
    <title>mail</title>
    <desc>Created with Sketch.</desc>
    <defs></defs>
    <g id="Symbols" stroke="none" stroke-width="1" fill="none" fill-rule="evenodd">
        <g id="Header" transform="translate(-1310.000000, -20.000000)">
            <g id="mail">
                <g transform="translate(1310.000000, 20.000000)">
                    <g id="Capa_1">
                        <g id="Group">
                            <path d="M22.275,20.5699565 L1.953125,20.5699565 C0.8765625,20.5699565 0,19.5464348 0,18.2873478 L0,2.72269565 C0,1.4636087 0.8765625,0.440086957 1.953125,0.440086957 L22.275,0.440086957 C23.3515625,0.440086957 24.228125,1.4636087 24.228125,2.72269565 L24.228125,18.2873478 C24.228125,19.5464348 23.3515625,20.5699565 22.275,20.5699565 Z" id="Shape" fill="#FFFFFF"></path>
                            <path d="M12.1140625,12.7990435 C11.5945312,12.7990435 11.075,12.5972609 10.6796875,12.1946087 L0.6484375,1.9676087 C0.4859375,1.80234783 0.46875,1.51382609 0.61015625,1.323 C0.753125,1.13308696 0.99921875,1.11573913 1.16171875,1.27917391 L11.1929687,11.5052609 C11.6921875,12.0138261 12.5359375,12.0138261 13.034375,11.5052609 L23.053125,1.2956087 C23.2148437,1.13034783 23.4609375,1.1486087 23.6046875,1.33943478 C23.7460937,1.53026087 23.7296875,1.81786957 23.5671875,1.98404348 L13.5484375,12.1936957 C13.1523437,12.5972609 12.6335937,12.7990435 12.1140625,12.7990435 L12.1140625,12.7990435 Z" id="Shape" fill="#4990E2"></path>
                            <g transform="translate(3.906250, 10.043478)" id="Shape" fill="#4990E2">
                                <path d="M15.7101562,5.94391304 C15.6140625,5.94391304 15.5179687,5.90282609 15.4429687,5.81973913 L10.9476562,0.891130435 C10.790625,0.719478261 10.7828125,0.430043478 10.9304687,0.246521739 C11.078125,0.061173913 11.3242187,0.0529565217 11.4828125,0.226434783 L15.978125,5.15504348 C16.1351562,5.32669565 16.1429687,5.61613043 15.9953125,5.79965217 C15.9179687,5.89552174 15.8148437,5.94391304 15.7101562,5.94391304 L15.7101562,5.94391304 Z"></path>
                                <path d="M0.7046875,5.94391304 C0.60078125,5.94391304 0.496875,5.89552174 0.41953125,5.79965217 C0.271875,5.61613043 0.2796875,5.32669565 0.43671875,5.15504348 L4.93359375,0.226434783 C5.09140625,0.0547826087 5.3390625,0.0620869565 5.4859375,0.246521739 C5.63359375,0.430043478 5.62578125,0.719478261 5.46875,0.891130435 L0.971875,5.81973913 C0.896875,5.90282609 0.80078125,5.94391304 0.7046875,5.94391304 L0.7046875,5.94391304 Z"></path>
                            </g>
                        </g>
                    </g>
                </g>
            </g>
        </g>
    </g>
</svg>