<?xml version="1.0" encoding="UTF-8" standalone="no"?>
<svg width="33px" height="28px" viewBox="0 0 33 28" version="1.1" xmlns="http://www.w3.org/2000/svg" xmlns:xlink="http://www.w3.org/1999/xlink">
    <!-- Generator: Sketch 39.1 (31720) - http://www.bohemiancoding.com/sketch -->
    <title>news</title>
    <desc>Created with Sketch.</desc>
    <defs></defs>
    <g id="Page-1" stroke="none" stroke-width="1" fill="none" fill-rule="evenodd">
        <g id="news" transform="translate(0.500000, 0.000000)">
            <g id="Capa_1">
                <g id="Group">
                    <path d="M11.2740385,15.4807692 L11.2740385,14.6394231 L5.04807692,14.6394231 L5.04807692,19.6875 L11.2740385,19.6875 L11.2740385,17.5 C11.2740385,17.2211442 11.5000577,16.9951923 11.7788462,16.9951923 L11.7788462,15.9855769 C11.5000577,15.9855769 11.2740385,15.759625 11.2740385,15.4807692 L11.2740385,15.4807692 Z" id="Shape" fill="#FF6E1D"></path>
                    <polygon id="Shape" fill="#FFCC75" points="21.9423077 5.6875 25.8726731 5.6875 21.9423077 1.75713462"></polygon>
                    <path d="M29.1105769,25.9471154 L27.0913462,25.9471154 C26.8124904,25.9471154 26.5865385,25.7211635 26.5865385,25.4423077 L26.5865385,6.69711538 L21.4375,6.69711538 C21.1586442,6.69711538 20.9326923,6.47116346 20.9326923,6.19230769 L20.9326923,1.04326923 L1.00961538,1.04326923 L1.00961538,25.4423077 C1.00961538,26.2773269 1.68895192,26.9567308 2.52403846,26.9567308 L29.1105769,26.9567308 C29.9455962,26.9567308 30.625,26.2773269 30.625,25.4423077 L29.6153846,25.4423077 C29.6153846,25.7211635 29.3894327,25.9471154 29.1105769,25.9471154 L29.1105769,25.9471154 Z M9.95844231,7.67536538 L11.7251346,6.32921154 C11.9058558,6.19156731 12.1563077,6.19156731 12.3370288,6.32921154 L13.797875,7.44227885 L15.2589231,6.32921154 C15.4396442,6.1915 15.6900962,6.19163462 15.87075,6.32921154 L17.6377115,7.67536538 C17.8594904,7.84430769 17.9023654,8.16105769 17.7333558,8.38283654 C17.6340096,8.51327885 17.4835769,8.58173077 17.3313942,8.58173077 C17.2247788,8.58179808 17.1172212,8.54807692 17.0258846,8.47848077 L15.5648365,7.36541346 L14.1037212,8.47848077 C13.923,8.616125 13.6726154,8.616125 13.4918942,8.47848077 L12.0311154,7.36541346 L10.5704712,8.47848077 C10.3487596,8.64742308 10.0320096,8.60468269 9.863,8.38290385 C9.69399038,8.161125 9.73673077,7.844375 9.95844231,7.67536538 L9.95844231,7.67536538 Z M11.7788462,23.7259615 L4.54326923,23.7259615 C4.26448077,23.7259615 4.03846154,23.5000096 4.03846154,23.2211538 C4.03846154,22.9422981 4.26448077,22.7163462 4.54326923,22.7163462 L11.7788462,22.7163462 C12.0576346,22.7163462 12.2836538,22.9422981 12.2836538,23.2211538 C12.2836538,23.5000096 12.0576346,23.7259615 11.7788462,23.7259615 L11.7788462,23.7259615 Z M12.2836538,15.4807692 C12.2836538,15.759625 12.0576346,15.9855769 11.7788462,15.9855769 L11.7788462,16.9951923 C12.0576346,16.9951923 12.2836538,17.2211442 12.2836538,17.5 L12.2836538,20.1923077 C12.2836538,20.4711635 12.0576346,20.6971154 11.7788462,20.6971154 L4.54326923,20.6971154 C4.26448077,20.6971154 4.03846154,20.4711635 4.03846154,20.1923077 L4.03846154,14.1346154 C4.03846154,13.8557596 4.26448077,13.6298077 4.54326923,13.6298077 L11.7788462,13.6298077 C12.0576346,13.6298077 12.2836538,13.8557596 12.2836538,14.1346154 L12.2836538,15.4807692 L12.2836538,15.4807692 Z M23.0528846,23.7259615 L15.8173077,23.7259615 C15.5385192,23.7259615 15.3125,23.5000096 15.3125,23.2211538 C15.3125,22.9422981 15.5385192,22.7163462 15.8173077,22.7163462 L23.0528846,22.7163462 C23.3317404,22.7163462 23.5576923,22.9422981 23.5576923,23.2211538 C23.5576923,23.5000096 23.3317404,23.7259615 23.0528846,23.7259615 L23.0528846,23.7259615 Z M23.0528846,20.6971154 L15.8173077,20.6971154 C15.5385192,20.6971154 15.3125,20.4711635 15.3125,20.1923077 C15.3125,19.9134519 15.5385192,19.6875 15.8173077,19.6875 L23.0528846,19.6875 C23.3317404,19.6875 23.5576923,19.9134519 23.5576923,20.1923077 C23.5576923,20.4711635 23.3317404,20.6971154 23.0528846,20.6971154 L23.0528846,20.6971154 Z M23.0528846,17.6682692 L15.8173077,17.6682692 C15.5385192,17.6682692 15.3125,17.4423173 15.3125,17.1634615 C15.3125,16.8846058 15.5385192,16.6586538 15.8173077,16.6586538 L23.0528846,16.6586538 C23.3317404,16.6586538 23.5576923,16.8846058 23.5576923,17.1634615 C23.5576923,17.4423173 23.3317404,17.6682692 23.0528846,17.6682692 L23.0528846,17.6682692 Z M23.0528846,14.6394231 L15.8173077,14.6394231 C15.5385192,14.6394231 15.3125,14.4134712 15.3125,14.1346154 C15.3125,13.8557596 15.5385192,13.6298077 15.8173077,13.6298077 L23.0528846,13.6298077 C23.3317404,13.6298077 23.5576923,13.8557596 23.5576923,14.1346154 C23.5576923,14.4134712 23.3317404,14.6394231 23.0528846,14.6394231 L23.0528846,14.6394231 Z M23.0528846,11.6105769 L4.54326923,11.6105769 C4.26448077,11.6105769 4.03846154,11.384625 4.03846154,11.1057692 C4.03846154,10.8269135 4.26448077,10.6009615 4.54326923,10.6009615 L23.0528846,10.6009615 C23.3317404,10.6009615 23.5576923,10.8269135 23.5576923,11.1057692 C23.5576923,11.384625 23.3317404,11.6105769 23.0528846,11.6105769 L23.0528846,11.6105769 Z" id="Shape" fill="#FFFFFF"></path>
                    <path d="M27.45575,5.84351923 C27.4645673,5.85274038 27.4733173,5.86196154 27.4813942,5.87185577 C27.4842885,5.87535577 27.4867788,5.87919231 27.4895385,5.88275962 C27.496875,5.89218269 27.5042115,5.90167308 27.510875,5.91163462 C27.5128942,5.91466346 27.5145769,5.91789423 27.5165288,5.92092308 C27.5234615,5.93175962 27.5302596,5.94273077 27.5363846,5.95410577 C27.5374615,5.956125 27.5383365,5.95834615 27.5394135,5.96036538 C27.5459423,5.97295192 27.5521346,5.98567308 27.5575865,5.99886538 C27.558125,6.00014423 27.5584615,6.00142308 27.5589327,6.00263462 C27.5645865,6.01656731 27.5697692,6.03070192 27.5742115,6.04524038 C27.5746827,6.04672115 27.5749519,6.04826923 27.5753558,6.04975 C27.5795288,6.06388462 27.5832981,6.07822115 27.5861923,6.09296154 C27.587,6.097 27.5873365,6.10117308 27.5880769,6.10527885 C27.5901635,6.11739423 27.5923173,6.12950962 27.5935288,6.14189423 C27.5952115,6.15858654 27.5960865,6.17541346 27.5960865,6.19230769 L27.5960865,24.9375 L29.1105096,24.9375 C29.3893654,24.9375 29.6153173,25.1634519 29.6153173,25.4423077 L30.6249327,25.4423077 L30.6249327,3.73557692 L26.9854712,3.73557692 C26.7066154,3.73557692 26.4806635,3.509625 26.4806635,3.23076923 L24.8437404,3.23076923 L27.4482788,5.83530769 C27.4509712,5.83793269 27.4531923,5.84082692 27.45575,5.84351923 L27.45575,5.84351923 Z" id="Shape" fill="#F2EBD9"></path>
                    <path d="M10.5704038,8.47848077 L12.0310481,7.36541346 L13.4918269,8.47848077 C13.6725481,8.616125 13.9229327,8.616125 14.1036538,8.47848077 L15.5647692,7.36541346 L17.0258173,8.47848077 C17.1171538,8.54807692 17.2247115,8.58179808 17.3313269,8.58173077 C17.4835096,8.58173077 17.6339423,8.51321154 17.7332885,8.38283654 C17.9022981,8.16105769 17.8594231,7.84430769 17.6376442,7.67536538 L15.8706827,6.32921154 C15.6900288,6.19163462 15.4395769,6.1915 15.2588558,6.32921154 L13.7978077,7.44227885 L12.3369615,6.32921154 C12.1562404,6.19156731 11.9057885,6.19156731 11.7250673,6.32921154 L9.958375,7.67536538 C9.73666346,7.844375 9.69385577,8.161125 9.86286538,8.38290385 C10.031875,8.60468269 10.3486923,8.64742308 10.5704038,8.47848077 L10.5704038,8.47848077 Z" id="Shape" fill="#082947"></path>
                    <path d="M31.1298077,2.72596154 L26.9855385,2.72596154 C26.7066827,2.72596154 26.4807308,2.95191346 26.4807308,3.23076923 C26.4807308,3.509625 26.7066827,3.73557692 26.9855385,3.73557692 L30.625,3.73557692 L30.625,25.4423077 C30.625,26.2773269 29.9455962,26.9567308 29.1105769,26.9567308 L2.52403846,26.9567308 C1.68895192,26.9567308 1.00961538,26.2773269 1.00961538,25.4423077 L1.00961538,1.04326923 L20.9326923,1.04326923 L20.9326923,6.19230769 C20.9326923,6.47116346 21.1586442,6.69711538 21.4375,6.69711538 L26.5865385,6.69711538 L26.5865385,25.4423077 C26.5865385,25.7211635 26.8124904,25.9471154 27.0913462,25.9471154 L29.1105769,25.9471154 C29.3894327,25.9471154 29.6153846,25.7211635 29.6153846,25.4423077 C29.6153846,25.1634519 29.3894327,24.9375 29.1105769,24.9375 L27.5961538,24.9375 L27.5961538,6.19230769 C27.5961538,6.17541346 27.5952788,6.15858654 27.5935962,6.14189423 C27.5923846,6.12950962 27.5902308,6.11739423 27.5881442,6.10527885 C27.5874038,6.10117308 27.5870673,6.097 27.5862596,6.09296154 C27.5833654,6.07828846 27.5795962,6.06395192 27.5754231,6.04975 C27.5750192,6.04826923 27.57475,6.04672115 27.5742788,6.04524038 C27.5698365,6.03070192 27.5646538,6.01656731 27.559,6.00263462 C27.5585288,6.00142308 27.558125,6.00014423 27.5576538,5.99886538 C27.5522019,5.98574038 27.5460096,5.97295192 27.5394808,5.96036538 C27.5384038,5.95834615 27.5375962,5.956125 27.5364519,5.95410577 C27.5303269,5.94273077 27.5235288,5.93175962 27.5165962,5.92092308 C27.5146442,5.91789423 27.5129615,5.91466346 27.5109423,5.91163462 C27.5042788,5.90167308 27.4969423,5.89218269 27.4896058,5.88275962 C27.4867788,5.87919231 27.4843558,5.87535577 27.4814615,5.87185577 C27.4733846,5.86202885 27.4646346,5.85274038 27.4558173,5.84351923 C27.4532596,5.84082692 27.4510385,5.83793269 27.4484135,5.83530769 L21.7945673,0.181461538 C21.7919423,0.178836538 21.7890481,0.176615385 21.7863558,0.174057692 C21.7771346,0.165240385 21.7678462,0.156490385 21.7580192,0.148413462 C21.7545192,0.145519231 21.7506827,0.143028846 21.7471154,0.140201923 C21.7376923,0.132865385 21.7282019,0.125528846 21.7183077,0.118865385 C21.7152788,0.116846154 21.7120481,0.115163462 21.7089519,0.113211538 C21.6981154,0.106211538 21.6871442,0.0994807692 21.6757692,0.0933557692 C21.67375,0.0922115385 21.6715962,0.0914038462 21.6695096,0.0903269231 C21.6569231,0.0837980769 21.6442019,0.0776057692 21.6310096,0.0721538462 C21.6297981,0.0716153846 21.6285192,0.0712788462 21.6272404,0.0707403846 C21.6133077,0.0650865385 21.5991731,0.0599038462 21.5846346,0.0554615385 C21.5831538,0.0550576923 21.5816058,0.0547884615 21.580125,0.0543173077 C21.5659231,0.0501442308 21.5515865,0.046375 21.5369135,0.0434807692 C21.532875,0.0426730769 21.5287019,0.0422692308 21.5245962,0.0415961538 C21.5124808,0.0395096154 21.5003654,0.0373557692 21.4879808,0.0360769231 C21.4712885,0.0343942308 21.4545288,0.0335192308 21.4375673,0.0335192308 L0.504807692,0.0335192308 C0.226019231,0.0336538462 0,0.259605769 0,0.538461538 L0,25.4423077 C0,26.8340962 1.13225,27.9663462 2.52403846,27.9663462 L29.1105769,27.9663462 C30.5023654,27.9663462 31.6346154,26.8340962 31.6346154,25.4423077 L31.6346154,3.23076923 C31.6346154,2.95191346 31.4086635,2.72596154 31.1298077,2.72596154 L31.1298077,2.72596154 Z M21.9423077,5.6875 L21.9423077,1.75713462 L25.8726731,5.6875 L21.9423077,5.6875 L21.9423077,5.6875 Z" id="Shape" fill="#082947"></path>
                    <path d="M11.7788462,22.7163462 L4.54326923,22.7163462 C4.26448077,22.7163462 4.03846154,22.9422981 4.03846154,23.2211538 C4.03846154,23.5000096 4.26448077,23.7259615 4.54326923,23.7259615 L11.7788462,23.7259615 C12.0576346,23.7259615 12.2836538,23.5000096 12.2836538,23.2211538 C12.2836538,22.9422981 12.0576346,22.7163462 11.7788462,22.7163462 L11.7788462,22.7163462 Z" id="Shape" fill="#082947"></path>
                    <path d="M23.0528846,22.7163462 L15.8173077,22.7163462 C15.5385192,22.7163462 15.3125,22.9422981 15.3125,23.2211538 C15.3125,23.5000096 15.5385192,23.7259615 15.8173077,23.7259615 L23.0528846,23.7259615 C23.3317404,23.7259615 23.5576923,23.5000096 23.5576923,23.2211538 C23.5576923,22.9422981 23.3317404,22.7163462 23.0528846,22.7163462 L23.0528846,22.7163462 Z" id="Shape" fill="#082947"></path>
                    <path d="M23.0528846,19.6875 L15.8173077,19.6875 C15.5385192,19.6875 15.3125,19.9134519 15.3125,20.1923077 C15.3125,20.4711635 15.5385192,20.6971154 15.8173077,20.6971154 L23.0528846,20.6971154 C23.3317404,20.6971154 23.5576923,20.4711635 23.5576923,20.1923077 C23.5576923,19.9134519 23.3317404,19.6875 23.0528846,19.6875 L23.0528846,19.6875 Z" id="Shape" fill="#082947"></path>
                    <path d="M23.0528846,16.6586538 L15.8173077,16.6586538 C15.5385192,16.6586538 15.3125,16.8846058 15.3125,17.1634615 C15.3125,17.4423173 15.5385192,17.6682692 15.8173077,17.6682692 L23.0528846,17.6682692 C23.3317404,17.6682692 23.5576923,17.4423173 23.5576923,17.1634615 C23.5576923,16.8846058 23.3317404,16.6586538 23.0528846,16.6586538 L23.0528846,16.6586538 Z" id="Shape" fill="#082947"></path>
                    <path d="M11.7788462,13.6298077 L4.54326923,13.6298077 C4.26448077,13.6298077 4.03846154,13.8557596 4.03846154,14.1346154 L4.03846154,20.1923077 C4.03846154,20.4711635 4.26448077,20.6971154 4.54326923,20.6971154 L11.7788462,20.6971154 C12.0576346,20.6971154 12.2836538,20.4711635 12.2836538,20.1923077 L12.2836538,17.5 C12.2836538,17.2211442 12.0576346,16.9951923 11.7788462,16.9951923 C11.5000577,16.9951923 11.2740385,17.2211442 11.2740385,17.5 L11.2740385,19.6875 L5.04807692,19.6875 L5.04807692,14.6394231 L11.2740385,14.6394231 L11.2740385,15.4807692 C11.2740385,15.759625 11.5000577,15.9855769 11.7788462,15.9855769 C12.0576346,15.9855769 12.2836538,15.759625 12.2836538,15.4807692 L12.2836538,14.1346154 C12.2836538,13.8557596 12.0576346,13.6298077 11.7788462,13.6298077 L11.7788462,13.6298077 Z" id="Shape" fill="#082947"></path>
                    <path d="M23.0528846,13.6298077 L15.8173077,13.6298077 C15.5385192,13.6298077 15.3125,13.8557596 15.3125,14.1346154 C15.3125,14.4134712 15.5385192,14.6394231 15.8173077,14.6394231 L23.0528846,14.6394231 C23.3317404,14.6394231 23.5576923,14.4134712 23.5576923,14.1346154 C23.5576923,13.8557596 23.3317404,13.6298077 23.0528846,13.6298077 L23.0528846,13.6298077 Z" id="Shape" fill="#082947"></path>
                    <path d="M23.0528846,10.6009615 L4.54326923,10.6009615 C4.26448077,10.6009615 4.03846154,10.8269135 4.03846154,11.1057692 C4.03846154,11.384625 4.26448077,11.6105769 4.54326923,11.6105769 L23.0528846,11.6105769 C23.3317404,11.6105769 23.5576923,11.384625 23.5576923,11.1057692 C23.5576923,10.8269135 23.3317404,10.6009615 23.0528846,10.6009615 L23.0528846,10.6009615 Z" id="Shape" fill="#082947"></path>
                </g>
            </g>
        </g>
    </g>
</svg>