<?xml version="1.0" encoding="UTF-8" standalone="no"?>
<svg width="29px" height="28px" viewBox="0 0 29 28" version="1.1" xmlns="http://www.w3.org/2000/svg" xmlns:xlink="http://www.w3.org/1999/xlink">
    <!-- Generator: Sketch 39.1 (31720) - http://www.bohemiancoding.com/sketch -->
    <title>project</title>
    <desc>Created with Sketch.</desc>
    <defs></defs>
    <g id="Page-1" stroke="none" stroke-width="1" fill="none" fill-rule="evenodd">
        <g id="project" transform="translate(0.617021, 0.000000)">
            <g id="Capa_1">
                <g id="Group">
                    <rect id="Rectangle-path" fill="#98D9D5" x="0.893617021" y="2.68085106" width="26.212766" height="2.08510638"></rect>
                    <path d="M1.63829787,5.65957447 L1.63829787,6.55319149 C1.88511489,6.55319149 2.08510638,6.75324255 2.08510638,7 L2.08510638,21.5361702 L25.9148936,21.5361702 L25.9148936,7 C25.9148936,6.75324255 26.1148851,6.55319149 26.3617021,6.55319149 L26.3617021,5.65957447 L1.63829787,5.65957447 L1.63829787,5.65957447 Z M21.2561702,19.3021277 C21.0094128,19.3021277 20.8093617,19.1020766 20.8093617,18.8553191 C20.8093617,18.6085617 21.0094128,18.4085106 21.2561702,18.4085106 C21.5029277,18.4085106 21.7029787,18.6085617 21.7029787,18.8553191 C21.7029787,19.1020766 21.5029277,19.3021277 21.2561702,19.3021277 L21.2561702,19.3021277 Z M23.0434043,17.5148936 C22.7966468,17.5148936 22.5965957,17.3148426 22.5965957,17.0680851 C22.5965957,16.8213277 22.7966468,16.6212766 23.0434043,16.6212766 C23.2901617,16.6212766 23.4902128,16.8213277 23.4902128,17.0680851 C23.4902128,17.3148426 23.2901617,17.5148936 23.0434043,17.5148936 L23.0434043,17.5148936 Z" id="Shape" fill="#F2EBD9"></path>
                    <ellipse id="Oval" fill="#082947" cx="23.0434043" cy="17.0680851" rx="0.446808511" ry="0.446808511"></ellipse>
                    <circle id="Oval" fill="#082947" cx="21.2561702" cy="18.8553191" r="0.446808511"></circle>
                    <path d="M27.5531915,5.65957447 C27.8000085,5.65957447 28,5.4595234 28,5.21276596 L28,2.23404255 C28,1.98728511 27.8000085,1.78723404 27.5531915,1.78723404 L26.8085106,1.78723404 L26.8085106,0.446808511 C26.8085106,0.200051064 26.6085191,0 26.3617021,0 C26.1148851,0 25.9148936,0.200051064 25.9148936,0.446808511 L25.9148936,1.78723404 L2.08510638,1.78723404 L2.08510638,0.446808511 C2.08510638,0.200051064 1.88511489,0 1.63829787,0 C1.39148085,0 1.19148936,0.200051064 1.19148936,0.446808511 L1.19148936,1.78723404 L0.446808511,1.78723404 C0.199991489,1.78723404 0,1.98728511 0,2.23404255 L0,5.21276596 C0,5.4595234 0.199991489,5.65957447 0.446808511,5.65957447 L27.5531915,5.65957447 L27.5531915,5.65957447 Z M0.893617021,2.68085106 L27.106383,2.68085106 L27.106383,4.76595745 L0.893617021,4.76595745 L0.893617021,2.68085106 L0.893617021,2.68085106 Z" id="Shape" fill="#082947"></path>
                    <path d="M25.9148936,7 L25.9148936,21.5361702 L2.08510638,21.5361702 L2.08510638,7 C2.08510638,6.75324255 1.88511489,6.55319149 1.63829787,6.55319149 C1.39148085,6.55319149 1.19148936,6.75324255 1.19148936,7 L1.19148936,21.5361702 L0.446808511,21.5361702 C0.199991489,21.5361702 0,21.7362213 0,21.9829787 C0,22.2297362 0.199991489,22.4297872 0.446808511,22.4297872 L13.5531915,22.4297872 L13.5531915,24.7858383 C12.866417,24.9808851 12.3617021,25.6132681 12.3617021,26.3617021 C12.3617021,27.2650894 13.0966723,28 14,28 C14.9033277,28 15.6382979,27.2650894 15.6382979,26.3617021 C15.6382979,25.6132681 15.133583,24.9808851 14.4468085,24.7858383 L14.4468085,22.4297872 L27.5531915,22.4297872 C27.8000085,22.4297872 28,22.2297362 28,21.9829787 C28,21.7362213 27.8000085,21.5361702 27.5531915,21.5361702 L26.8085106,21.5361702 L26.8085106,7 C26.8085106,6.75324255 26.6085191,6.55319149 26.3617021,6.55319149 C26.1148851,6.55319149 25.9148936,6.75324255 25.9148936,7 L25.9148936,7 Z M14.7446809,26.3617021 C14.7446809,26.7723489 14.4106468,27.106383 14,27.106383 C13.5893532,27.106383 13.2553191,26.7723489 13.2553191,26.3617021 C13.2553191,25.9510553 13.5893532,25.6170213 14,25.6170213 C14.4106468,25.6170213 14.7446809,25.9510553 14.7446809,26.3617021 L14.7446809,26.3617021 Z" id="Shape" fill="#082947"></path>
                </g>
            </g>
        </g>
    </g>
</svg>