<?xml version="1.0" encoding="UTF-8" standalone="no"?>
<svg width="19px" height="25px" viewBox="0 0 19 25" version="1.1" xmlns="http://www.w3.org/2000/svg" xmlns:xlink="http://www.w3.org/1999/xlink">
    <!-- Generator: Sketch 39 (31667) - http://www.bohemiancoding.com/sketch -->
    <title>medical-result</title>
    <desc>Created with Sketch.</desc>
    <defs></defs>
    <g id="Symbols" stroke="none" stroke-width="1" fill="none" fill-rule="evenodd">
        <g id="Section-1" transform="translate(-128.000000, -111.000000)" fill="#000000">
            <g id="medical-result">
                <g transform="translate(128.000000, 111.000000)">
                    <g id="Capa_1">
                        <g id="Group">
                            <g id="Shape">
                                <path d="M17.1236486,24.8797297 L2.35067568,24.8797297 C1.41959459,24.8797297 0.661486486,24.1216216 0.661486486,23.1905405 L0.661486486,4.07364865 C0.661486486,3.14256757 1.41959459,2.38445946 2.35067568,2.38445946 L4.83851351,2.38445946 C5.025,2.38445946 5.17635135,2.53581081 5.17635135,2.7222973 C5.17635135,2.90878378 5.025,3.06013514 4.83851351,3.06013514 L2.35067568,3.06013514 C1.79189189,3.06013514 1.33716216,3.51486486 1.33716216,4.07364865 L1.33716216,23.1905405 C1.33716216,23.7493243 1.79189189,24.2040541 2.35067568,24.2040541 L17.122973,24.2040541 C17.6817568,24.2040541 18.1364865,23.7493243 18.1364865,23.1905405 L18.1364865,4.07364865 C18.1364865,3.51486486 17.6817568,3.06013514 17.122973,3.06013514 L14.6351351,3.06013514 C14.4486486,3.06013514 14.2972973,2.90878378 14.2972973,2.7222973 C14.2972973,2.53581081 14.4486486,2.38445946 14.6351351,2.38445946 L17.122973,2.38445946 C18.0540541,2.38445946 18.8121622,3.14256757 18.8121622,4.07364865 L18.8121622,23.1905405 C18.8128378,24.1222973 18.0547297,24.8797297 17.1236486,24.8797297 L17.1236486,24.8797297 Z"></path>
                                <path d="M14.6358108,5.67297297 L4.83851351,5.67297297 C4.65202703,5.67297297 4.50067568,5.52162162 4.50067568,5.33513514 L4.50067568,1.81621622 C4.50067568,1.62972973 4.65202703,1.47837838 4.83851351,1.47837838 L7.9527027,1.47837838 C8.11148649,0.637837838 8.85135135,0 9.73716216,0 C10.622973,0 11.3628378,0.637837838 11.5216216,1.47837838 L14.6358108,1.47837838 C14.8222973,1.47837838 14.9736486,1.62972973 14.9736486,1.81621622 L14.9736486,5.33581081 C14.9736486,5.5222973 14.822973,5.67297297 14.6358108,5.67297297 L14.6358108,5.67297297 Z M5.17635135,4.9972973 L14.297973,4.9972973 L14.297973,2.15405405 L11.2148649,2.15405405 C11.0283784,2.15405405 10.877027,2.0027027 10.877027,1.81621622 C10.8777027,1.18716216 10.3662162,0.675675676 9.73716216,0.675675676 C9.10810811,0.675675676 8.59662162,1.18716216 8.59662162,1.81621622 C8.59662162,2.0027027 8.44527027,2.15405405 8.25878378,2.15405405 L5.17567568,2.15405405 L5.17567568,4.9972973 L5.17635135,4.9972973 Z"></path>
                            </g>
                            <path d="M8.55472973,18.4837838 C8.42162162,18.4837838 8.30067568,18.4054054 8.24594595,18.2831081 L6.64594595,14.6817568 L3.825,14.6817568 C3.63851351,14.6817568 3.48716216,14.5304054 3.48716216,14.3439189 C3.48716216,14.1574324 3.63851351,14.0060811 3.825,14.0060811 L6.86554054,14.0060811 C6.99932432,14.0060811 7.11959459,14.0844595 7.17432432,14.2067568 L8.51891892,17.2331081 L10.9391892,10.3763514 C10.9851351,10.2472973 11.1047297,10.1581081 11.2412162,10.1513514 C11.3804054,10.1358108 11.5054054,10.2216216 11.5641892,10.3459459 L13.275,14.0067568 L15.65,14.0067568 C15.8364865,14.0067568 15.9878378,14.1581081 15.9878378,14.3445946 C15.9878378,14.5310811 15.8364865,14.6824324 15.65,14.6824324 L13.0601351,14.6824324 C12.9290541,14.6824324 12.8094595,14.6067568 12.7540541,14.4878378 L11.302027,11.3804054 L8.87432432,18.2594595 C8.82837838,18.3898649 8.70675676,18.4790541 8.56891892,18.4844595 C8.56351351,18.4837838 8.55878378,18.4837838 8.55472973,18.4837838 L8.55472973,18.4837838 Z" id="Shape"></path>
                        </g>
                    </g>
                </g>
            </g>
        </g>
    </g>
</svg>