<?xml version="1.0" encoding="UTF-8" standalone="no"?>
<svg width="23px" height="28px" viewBox="0 0 23 28" version="1.1" xmlns="http://www.w3.org/2000/svg" xmlns:xlink="http://www.w3.org/1999/xlink">
    <!-- Generator: Sketch 39.1 (31720) - http://www.bohemiancoding.com/sketch -->
    <title>topic</title>
    <desc>Created with Sketch.</desc>
    <defs></defs>
    <g id="Page-1" stroke="none" stroke-width="1" fill="none" fill-rule="evenodd">
        <g id="topic">
            <g id="Capa_1">
                <g id="Group">
                    <rect id="Rectangle-path" fill="#F2484B" x="13.4340426" y="24.7387149" width="8.63829787" height="2.8144766"></rect>
                    <rect id="Rectangle-path" fill="#F2484B" x="0.923404255" y="20.5685021" width="8.63829787" height="6.98468936"></rect>
                    <rect id="Rectangle-path" fill="#98D9D5" x="14.0297872" y="22.3557362" width="7.44680851" height="1.4893617"></rect>
                    <rect id="Rectangle-path" fill="#98D9D5" x="1.51914894" y="18.1855234" width="7.44680851" height="1.4893617"></rect>
                    <path d="M20.2851064,20.1216936 L20.2851064,17.2033191 C20.2851064,17.0906043 20.3277021,16.9820596 20.4043745,16.8994298 C21.0957957,16.1541532 21.4765957,15.1833872 21.4765957,14.166034 L21.4765957,7.89361702 C21.4765957,7.64721702 21.2761872,7.44680851 21.0297872,7.44680851 C20.7833872,7.44680851 20.5829787,7.64721702 20.5829787,7.89361702 L20.5829787,11.8255319 C20.5829787,12.0722894 20.3829872,12.2723404 20.1361702,12.2723404 C19.8893532,12.2723404 19.6893617,12.0722894 19.6893617,11.8255319 L19.6893617,6.70212766 C19.6893617,6.45572766 19.4889532,6.25531915 19.2425532,6.25531915 C18.9961532,6.25531915 18.7957447,6.45572766 18.7957447,6.70212766 L18.7957447,11.8255319 C18.7957447,12.0722894 18.5957532,12.2723404 18.3489362,12.2723404 C18.1021191,12.2723404 17.9021277,12.0722894 17.9021277,11.8255319 L17.9021277,5.5106383 C17.9021277,5.2642383 17.7017191,5.06382979 17.4553191,5.06382979 C17.2089191,5.06382979 17.0085106,5.2642383 17.0085106,5.5106383 L17.0085106,11.8255319 C17.0085106,12.0722894 16.8085191,12.2723404 16.5617021,12.2723404 C16.3148851,12.2723404 16.1148936,12.0722894 16.1148936,11.8255319 L16.1148936,6.70212766 C16.1148936,6.45572766 15.9144851,6.25531915 15.6680851,6.25531915 C15.4216851,6.25531915 15.2212766,6.45572766 15.2212766,6.70212766 L15.2212766,13.7510383 C16.7349447,13.9684851 17.9021277,15.2739404 17.9021277,16.8468851 C17.9021277,17.0936426 17.7021362,17.2936936 17.4553191,17.2936936 C17.2085021,17.2936936 17.0085106,17.0936426 17.0085106,16.8468851 C17.0085106,15.6150043 16.0063489,14.6128426 14.7744681,14.6128426 C14.5276511,14.6128426 14.3276596,14.4127915 14.3276596,14.166034 L14.3276596,10.2765957 C14.3276596,10.0301957 14.1272511,9.82978723 13.8808511,9.82978723 C13.6344511,9.82978723 13.4340426,10.0301957 13.4340426,10.2765957 L13.4340426,14.166034 C13.4340426,15.8677191 14.5113872,17.3918128 16.1147745,17.9586043 C16.3474128,18.040817 16.4694213,18.2961532 16.3871489,18.5287915 C16.3223319,18.7122213 16.149983,18.826783 15.9658979,18.826783 C15.9165106,18.826783 15.8662298,18.8185021 15.8170213,18.8011064 C15.6108936,18.7282468 15.4123915,18.6417447 15.2212766,18.5441021 L15.2212766,21.4620596 L20.7319149,21.4620596 L20.7319149,20.5684426 C20.4850979,20.5685021 20.2851064,20.3684511 20.2851064,20.1216936 L20.2851064,20.1216936 Z" id="Shape" fill="#FFCC75"></path>
                    <path d="M7.77446809,15.9514809 L7.77446809,13.0331064 C7.77446809,12.9203915 7.81706383,12.8118468 7.89373617,12.729217 C8.58515745,11.9839404 8.96595745,11.0131745 8.96595745,9.99582128 L8.96595745,3.72340426 C8.96595745,3.47700426 8.76554894,3.27659574 8.51914894,3.27659574 C8.27274894,3.27659574 8.07234043,3.47700426 8.07234043,3.72340426 L8.07234043,7.65531915 C8.07234043,7.9020766 7.87234894,8.10212766 7.62553191,8.10212766 C7.37871489,8.10212766 7.1787234,7.9020766 7.1787234,7.65531915 L7.1787234,2.53191489 C7.1787234,2.28551489 6.97831489,2.08510638 6.73191489,2.08510638 C6.48551489,2.08510638 6.28510638,2.28551489 6.28510638,2.53191489 L6.28510638,7.65531915 C6.28510638,7.9020766 6.08511489,8.10212766 5.83829787,8.10212766 C5.59148085,8.10212766 5.39148936,7.9020766 5.39148936,7.65531915 L5.39148936,1.34042553 C5.39148936,1.09402553 5.19108085,0.893617021 4.94468085,0.893617021 C4.69828085,0.893617021 4.49787234,1.09402553 4.49787234,1.34042553 L4.49787234,7.65531915 C4.49787234,7.9020766 4.29788085,8.10212766 4.05106383,8.10212766 C3.80424681,8.10212766 3.60425532,7.9020766 3.60425532,7.65531915 L3.60425532,2.53191489 C3.60425532,2.28551489 3.40384681,2.08510638 3.15744681,2.08510638 C2.91104681,2.08510638 2.7106383,2.28551489 2.7106383,2.53191489 L2.7106383,9.58082553 C4.22430638,9.79827234 5.39148936,11.1037277 5.39148936,12.6766723 C5.39148936,12.9234298 5.19149787,13.1234809 4.94468085,13.1234809 C4.69786383,13.1234809 4.49787234,12.9234298 4.49787234,12.6766723 C4.49787234,11.4447915 3.49571064,10.4426298 2.26382979,10.4426298 C2.01701277,10.4426298 1.81702128,10.2425787 1.81702128,9.99582128 L1.81702128,6.10638298 C1.81702128,5.85998298 1.61661277,5.65957447 1.37021277,5.65957447 C1.12381277,5.65957447 0.923404255,5.85998298 0.923404255,6.10638298 L0.923404255,9.99582128 C0.923404255,11.6975064 2.00074894,13.2216 3.60413617,13.7883915 C3.83677447,13.8706043 3.95878298,14.1259404 3.87651064,14.3585787 C3.81169362,14.5420085 3.63934468,14.6565702 3.45525957,14.6565702 C3.40587234,14.6565702 3.35559149,14.6482894 3.30638298,14.6308936 C3.10025532,14.558034 2.90175319,14.4715319 2.7106383,14.3738894 L2.7106383,17.2918468 L8.2212766,17.2918468 L8.2212766,16.3982298 C7.97445957,16.3982894 7.77446809,16.1982383 7.77446809,15.9514809 L7.77446809,15.9514809 Z" id="Shape" fill="#F2EBD9"></path>
                    <path d="M22.5191489,23.8450979 L22.3702128,23.8450979 L22.3702128,21.9089277 C22.3702128,21.6621702 22.1702213,21.4621191 21.9234043,21.4621191 L15.2212766,21.4621191 L15.2212766,18.5441617 C15.4123915,18.6418043 15.6108936,18.7283064 15.8170213,18.801166 C15.8662298,18.8185617 15.9165106,18.8268426 15.9658979,18.8268426 C16.149983,18.8268426 16.3223319,18.7122213 16.3871489,18.5288511 C16.4694213,18.2962128 16.3474128,18.0409362 16.1147745,17.9586638 C14.5113872,17.3918723 13.4340426,15.8677787 13.4340426,14.1660936 L13.4340426,10.2765957 C13.4340426,10.0301957 13.6344511,9.82978723 13.8808511,9.82978723 C14.1272511,9.82978723 14.3276596,10.0301957 14.3276596,10.2765957 L14.3276596,14.166034 C14.3276596,14.4127915 14.5276511,14.6128426 14.7744681,14.6128426 C16.0063489,14.6128426 17.0085106,15.6150043 17.0085106,16.8468851 C17.0085106,17.0936426 17.2085021,17.2936936 17.4553191,17.2936936 C17.7021362,17.2936936 17.9021277,17.0936426 17.9021277,16.8468851 C17.9021277,15.274 16.7349447,13.9685447 15.2212766,13.7510383 L15.2212766,6.70212766 C15.2212766,6.45572766 15.4216851,6.25531915 15.6680851,6.25531915 C15.9144851,6.25531915 16.1148936,6.45572766 16.1148936,6.70212766 L16.1148936,11.8255319 C16.1148936,12.0722894 16.3148851,12.2723404 16.5617021,12.2723404 C16.8085191,12.2723404 17.0085106,12.0722894 17.0085106,11.8255319 L17.0085106,5.5106383 C17.0085106,5.2642383 17.2089191,5.06382979 17.4553191,5.06382979 C17.7017191,5.06382979 17.9021277,5.2642383 17.9021277,5.5106383 L17.9021277,11.8255319 C17.9021277,12.0722894 18.1021191,12.2723404 18.3489362,12.2723404 C18.5957532,12.2723404 18.7957447,12.0722894 18.7957447,11.8255319 L18.7957447,6.70212766 C18.7957447,6.45572766 18.9961532,6.25531915 19.2425532,6.25531915 C19.4889532,6.25531915 19.6893617,6.45572766 19.6893617,6.70212766 L19.6893617,11.8255319 C19.6893617,12.0722894 19.8893532,12.2723404 20.1361702,12.2723404 C20.3829872,12.2723404 20.5829787,12.0722894 20.5829787,11.8255319 L20.5829787,7.89361702 C20.5829787,7.64721702 20.7833872,7.44680851 21.0297872,7.44680851 C21.2761872,7.44680851 21.4765957,7.64721702 21.4765957,7.89361702 L21.4765957,14.166034 C21.4765957,15.1833872 21.0957957,16.1541532 20.4043745,16.8994298 C20.3277021,16.9820596 20.2851064,17.0906043 20.2851064,17.2033191 L20.2851064,20.1216936 C20.2851064,20.3684511 20.4850979,20.5685021 20.7319149,20.5685021 C20.9787319,20.5685021 21.1787234,20.3684511 21.1787234,20.1216936 L21.1787234,17.3739404 C21.948366,16.4819319 22.3702128,15.3497191 22.3702128,14.166034 L22.3702128,7.89361702 C22.3702128,7.1544766 21.7688681,6.55319149 21.0297872,6.55319149 C20.8724511,6.55319149 20.7214298,6.58041702 20.5810723,6.6304 C20.5437191,5.92450213 19.9576255,5.36170213 19.2425532,5.36170213 C19.085217,5.36170213 18.9341957,5.38892766 18.7938383,5.43891064 C18.7564851,4.73301277 18.1703915,4.17021277 17.4553191,4.17021277 C16.7402468,4.17021277 16.1541532,4.73301277 16.1168,5.43891064 C15.9764426,5.38892766 15.8254213,5.36170213 15.6680851,5.36170213 C14.9290043,5.36170213 14.3276596,5.96298723 14.3276596,6.70212766 L14.3276596,9.01302128 C14.1878383,8.96339574 14.0374723,8.93617021 13.8808511,8.93617021 C13.1417702,8.93617021 12.5404255,9.53745532 12.5404255,10.2765957 L12.5404255,14.166034 C12.5404255,15.6592681 13.2193362,17.0405617 14.3276596,17.9573532 L14.3276596,21.4621191 L13.5829787,21.4621191 C13.3361617,21.4621191 13.1361702,21.6621702 13.1361702,21.9089277 L13.1361702,23.8450979 L12.987234,23.8450979 C12.740417,23.8450979 12.5404255,24.0451489 12.5404255,24.2919064 L12.5404255,27.5531915 C12.5404255,27.7999489 12.740417,28 12.987234,28 C13.2340511,28 13.4340426,27.7999489 13.4340426,27.5531915 L13.4340426,24.7387149 L22.0723404,24.7387149 L22.0723404,27.5531915 C22.0723404,27.7999489 22.2723319,28 22.5191489,28 C22.765966,28 22.9659574,27.7999489 22.9659574,27.5531915 L22.9659574,24.2919064 C22.9659574,24.0451489 22.765966,23.8450979 22.5191489,23.8450979 L22.5191489,23.8450979 Z M21.4765957,22.3557362 L21.4765957,23.8450979 L14.0297872,23.8450979 L14.0297872,22.3557362 L21.4765957,22.3557362 L21.4765957,22.3557362 Z" id="Shape" fill="#082947"></path>
                    <path d="M10.0085106,19.6748851 L9.85957447,19.6748851 L9.85957447,17.7387149 C9.85957447,17.4919574 9.65958298,17.2919064 9.41276596,17.2919064 L2.7106383,17.2919064 L2.7106383,14.3739489 C2.90175319,14.4715915 3.10025532,14.5580936 3.30638298,14.6309532 C3.35559149,14.6483489 3.40587234,14.6566298 3.45525957,14.6566298 C3.63934468,14.6566298 3.81169362,14.5420085 3.87651064,14.3586383 C3.95878298,14.126 3.83677447,13.8707234 3.60413617,13.7884511 C2.00074894,13.2216 0.923404255,11.6975064 0.923404255,9.99582128 L0.923404255,6.10638298 C0.923404255,5.85998298 1.12381277,5.65957447 1.37021277,5.65957447 C1.61661277,5.65957447 1.81702128,5.85998298 1.81702128,6.10638298 L1.81702128,9.99582128 C1.81702128,10.2425787 2.01701277,10.4426298 2.26382979,10.4426298 C3.49571064,10.4426298 4.49787234,11.4447915 4.49787234,12.6766723 C4.49787234,12.9234298 4.69786383,13.1234809 4.94468085,13.1234809 C5.19149787,13.1234809 5.39148936,12.9234298 5.39148936,12.6766723 C5.39148936,11.1037872 4.22430638,9.79833191 2.7106383,9.58082553 L2.7106383,2.53191489 C2.7106383,2.28551489 2.91104681,2.08510638 3.15744681,2.08510638 C3.40384681,2.08510638 3.60425532,2.28551489 3.60425532,2.53191489 L3.60425532,7.65531915 C3.60425532,7.9020766 3.80424681,8.10212766 4.05106383,8.10212766 C4.29788085,8.10212766 4.49787234,7.9020766 4.49787234,7.65531915 L4.49787234,1.34042553 C4.49787234,1.09402553 4.69828085,0.893617021 4.94468085,0.893617021 C5.19108085,0.893617021 5.39148936,1.09402553 5.39148936,1.34042553 L5.39148936,7.65531915 C5.39148936,7.9020766 5.59148085,8.10212766 5.83829787,8.10212766 C6.08511489,8.10212766 6.28510638,7.9020766 6.28510638,7.65531915 L6.28510638,2.53191489 C6.28510638,2.28551489 6.48551489,2.08510638 6.73191489,2.08510638 C6.97831489,2.08510638 7.1787234,2.28551489 7.1787234,2.53191489 L7.1787234,7.65531915 C7.1787234,7.9020766 7.37871489,8.10212766 7.62553191,8.10212766 C7.87234894,8.10212766 8.07234043,7.9020766 8.07234043,7.65531915 L8.07234043,3.72340426 C8.07234043,3.47700426 8.27274894,3.27659574 8.51914894,3.27659574 C8.76554894,3.27659574 8.96595745,3.47700426 8.96595745,3.72340426 L8.96595745,9.99582128 C8.96595745,11.0131745 8.58515745,11.9839404 7.89373617,12.729217 C7.81706383,12.8118468 7.77446809,12.9203915 7.77446809,13.0331064 L7.77446809,15.9514809 C7.77446809,16.1982383 7.97445957,16.3982894 8.2212766,16.3982894 C8.46809362,16.3982894 8.66808511,16.1982383 8.66808511,15.9514809 L8.66808511,13.2037277 C9.43772766,12.3117191 9.85957447,11.1795064 9.85957447,9.99582128 L9.85957447,3.72340426 C9.85957447,2.98426383 9.25822979,2.38297872 8.51914894,2.38297872 C8.36181277,2.38297872 8.21079149,2.41020426 8.07043404,2.46018723 C8.03308085,1.75428936 7.44698723,1.19148936 6.73191489,1.19148936 C6.57457872,1.19148936 6.42355745,1.21871489 6.2832,1.26869787 C6.24584681,0.5628 5.65975319,0 4.94468085,0 C4.22960851,0 3.64351489,0.5628 3.6061617,1.26869787 C3.46580426,1.21871489 3.31478298,1.19148936 3.15744681,1.19148936 C2.41836596,1.19148936 1.81702128,1.79277447 1.81702128,2.53191489 L1.81702128,4.84280851 C1.6772,4.79324255 1.52683404,4.76595745 1.37021277,4.76595745 C0.631131915,4.76595745 0.029787234,5.36724255 0.029787234,6.10638298 L0.029787234,9.99582128 C0.029787234,11.4890553 0.708697872,12.8703489 1.81702128,13.7871404 L1.81702128,17.2919064 L1.07234043,17.2919064 C0.825523404,17.2919064 0.625531915,17.4919574 0.625531915,17.7387149 L0.625531915,19.6748851 L0.476595745,19.6748851 C0.229778723,19.6748851 0.029787234,19.8749362 0.029787234,20.1216936 L0.029787234,27.5531915 C0.029787234,27.7999489 0.229778723,28 0.476595745,28 C0.723412766,28 0.923404255,27.7999489 0.923404255,27.5531915 L0.923404255,20.5685021 L9.56170213,20.5685021 L9.56170213,27.5531915 C9.56170213,27.7999489 9.76169362,28 10.0085106,28 C10.2553277,28 10.4553191,27.7999489 10.4553191,27.5531915 L10.4553191,20.1216936 C10.4553191,19.8749362 10.2553277,19.6748851 10.0085106,19.6748851 L10.0085106,19.6748851 Z M8.96595745,18.1855234 L8.96595745,19.6748851 L1.51914894,19.6748851 L1.51914894,18.1855234 L8.96595745,18.1855234 L8.96595745,18.1855234 Z" id="Shape" fill="#082947"></path>
                </g>
            </g>
        </g>
    </g>
</svg>