<?xml version="1.0" encoding="UTF-8" standalone="no"?>
<svg width="18px" height="21px" viewBox="0 0 18 21" version="1.1" xmlns="http://www.w3.org/2000/svg" xmlns:xlink="http://www.w3.org/1999/xlink">
    <!-- Generator: Sketch 39.1 (31720) - http://www.bohemiancoding.com/sketch -->
    <title>bookmark</title>
    <desc>Created with Sketch.</desc>
    <defs></defs>
    <g id="Main" stroke="none" stroke-width="1" fill="none" fill-rule="evenodd">
        <g id="bookmark" transform="translate(0.000000, 1.000000)" stroke-width="0.5" stroke="#4A4A4A" fill="#4A4A4A">
            <g id="Main-Page">
                <g>
                    <g id="card-2">
                        <g id="Post-2-Clipped">
                            <g id="Post-2">
                                <g id="bookmark">
                                    <g id="Group" transform="translate(0.674156, 0.000000)">
                                        <g id="Capa_1">
                                            <path d="M17.0694742,2.12058329 C17.0694742,0.971818809 16.1519737,0.0286845523 15.0184299,0.00345597016 L15.0184299,0 L2.40108917,0 C1.25318806,0 0.319279227,0.943825452 0.319279227,2.10468583 L0.319279227,19.6534111 L6.81425279,15.2760793 L13.3092263,19.6534111 L13.3092263,8.63992539 L17.0694742,8.63992539 L17.0694742,2.12058329 L17.0694742,2.12058329 L17.0694742,2.12058329 Z M12.625545,18.3622606 L6.81425279,14.4452641 L1.00296065,18.3622606 L1.00296065,2.10468583 C1.00296065,1.32536456 1.63023837,0.691194031 2.40108917,0.691194031 L13.3454615,0.691194031 C13.009432,1.02365836 12.7704854,1.45565463 12.6737444,1.93914485 L12.6734026,1.94018164 C12.6580198,2.01690418 12.6460554,2.09500911 12.638193,2.17415083 C12.6299889,2.25467493 12.625545,2.33658143 12.625545,2.41917911 L12.625545,8.63992539 L12.625545,18.3622606 L12.625545,18.3622606 L12.625545,18.3622606 Z M16.3857928,7.94873137 L13.3092263,7.94873137 L13.3092263,2.41917911 C13.3092263,2.30167612 13.3211908,2.18728351 13.3434104,2.07634687 C13.4757028,1.42316851 13.9785504,0.901662617 14.6177926,0.744070375 C14.6300989,0.740960002 14.6410377,0.73543045 14.653344,0.73301127 C14.7364113,0.714349031 14.8235807,0.707782688 14.9107501,0.702253136 C14.9391229,0.700525151 14.9661283,0.693958808 14.9948429,0.69361321 C15.7626171,0.7064003 16.3857928,1.3436812 16.3857928,2.12058329 L16.3857928,7.94873137 L16.3857928,7.94873137 L16.3857928,7.94873137 Z" id="Shape"></path>
                                        </g>
                                    </g>
                                </g>
                            </g>
                        </g>
                    </g>
                </g>
            </g>
        </g>
    </g>
</svg>