<?xml version="1.0" encoding="UTF-8" standalone="no"?>
<svg width="22px" height="20px" viewBox="0 0 22 20" version="1.1" xmlns="http://www.w3.org/2000/svg" xmlns:xlink="http://www.w3.org/1999/xlink">
    <!-- Generator: Sketch 39.1 (31720) - http://www.bohemiancoding.com/sketch -->
    <title>heart</title>
    <desc>Created with Sketch.</desc>
    <defs></defs>
    <g id="Main" stroke="none" stroke-width="1" fill="none" fill-rule="evenodd">
        <g id="heart">
            <g id="Group-8">
                <g id="Main-Page">
                    <g id="card-2">
                        <g id="Post-2-Clipped">
                            <g id="Post-2">
                                <g id="Group-8">
                                    <g id="Group">
                                        <path d="M15.033117,1.28504462 C13.5433175,1.28504462 12.0132532,2.009962 11.0401512,3.17697336 C10.9208731,3.3199507 10.7456949,3.40242537 10.5611564,3.40242537 L10.5610518,3.40242537 C10.3765132,3.4023723 10.2012305,3.31989763 10.082057,3.17692029 C9.1094255,2.009962 7.57909974,1.28504462 6.08846363,1.28504462 C3.37806402,1.28504462 1.2550083,3.44005378 1.2550083,6.19117334 C1.2550083,9.66354829 4.26488427,12.5357262 9.5847599,17.3134195 C9.59396333,17.3216457 9.60295752,17.3301904 9.611638,17.3390005 L10.5610518,18.298233 L11.5102564,17.3390005 C11.5190414,17.3301904 11.5280357,17.3216457 11.537239,17.3133664 C16.8572192,12.5364162 19.8670952,9.66460971 19.8670952,6.19117334 C19.8670952,3.44005378 17.7437258,1.28504462 15.033117,1.28504462 L15.033117,1.28504462 L15.033117,1.28504462 Z M6.4624561,3.53521279 C4.77980371,3.53521279 3.46178353,4.87311762 3.46178353,6.58115012 C3.46178353,6.9329147 3.18081855,7.21802022 2.83427938,7.21802022 C2.48774022,7.21802022 2.20677523,6.9329147 2.20677523,6.58115012 C2.20677523,4.1589209 4.0761101,2.26147261 6.4624561,2.26147261 C6.80899528,2.26147261 7.08996026,2.54663119 7.08996026,2.8983427 C7.08996026,3.25010728 6.80899528,3.53521279 6.4624561,3.53521279 L6.4624561,3.53521279 L6.4624561,3.53521279 Z" id="Shape"></path>
                                        <path d="M15.033117,0.0113044441 C13.3872259,0.0113044441 11.761415,0.68474149 10.5611041,1.83986461 C9.36126383,0.684794562 7.73498224,0.0113044441 6.08841133,0.0113044441 C2.67437041,0.0113044441 0,2.72585705 0,6.19117334 C0,8.1305489 0.7869425,10.0061313 2.47649743,12.0936853 C3.9504524,13.9149215 6.00254785,15.7969788 8.73930263,18.2549258 L10.1183999,19.6483445 C10.2408678,19.7720034 10.4009859,19.8338859 10.5611564,19.8338859 C10.7213268,19.8338859 10.881445,19.7720034 11.0039129,19.6482913 L12.3826963,18.2548727 C15.1192419,15.7975626 17.1710759,13.9158768 18.6458675,12.0936853 C20.3352656,10.0062374 21.1221035,8.13065505 21.1221035,6.19117334 C21.1221035,2.72585705 18.447524,0.0113044441 15.033117,0.0113044441 L15.033117,0.0113044441 L15.033117,0.0113044441 Z M11.537239,17.3133664 C11.5280357,17.3216457 11.5190414,17.3301904 11.5102564,17.3390005 L10.5610518,18.298233 L9.611638,17.3390005 C9.60295752,17.3301904 9.59396333,17.3216457 9.5847599,17.3134195 C4.26488427,12.5357262 1.2550083,9.66349524 1.2550083,6.19117334 C1.2550083,3.44005378 3.37806402,1.2850977 6.08846363,1.2850977 C7.57909974,1.2850977 9.1094255,2.01001507 10.082057,3.17697336 C10.2012305,3.3199507 10.3765132,3.40242537 10.5610518,3.40247845 L10.5611564,3.40247845 C10.7456949,3.40247845 10.9208731,3.32000377 11.0401512,3.17702644 C12.0132532,2.01001507 13.5433175,1.2850977 15.033117,1.2850977 C17.7437258,1.2850977 19.867043,3.44005378 19.867043,6.19117334 C19.8670952,9.66460971 16.8572192,12.5364162 11.537239,17.3133664 L11.537239,17.3133664 L11.537239,17.3133664 Z" id="Shape" fill="#D0011B"></path>
                                        <path d="M2.20677523,6.58115012 C2.20677523,6.9329147 2.48774022,7.21802022 2.83427938,7.21802022 C3.18081855,7.21802022 3.46178353,6.9329147 3.46178353,6.58115012 C3.46178353,4.87311762 4.77980371,3.53521279 6.4624561,3.53521279 C6.80899528,3.53521279 7.08996026,3.25010728 7.08996026,2.8983427 C7.08996026,2.54663119 6.80899528,2.26147261 6.4624561,2.26147261 C4.0761101,2.26147261 2.20677523,4.1589209 2.20677523,6.58115012 L2.20677523,6.58115012 Z" id="Shape" fill="#D0011B"></path>
                                    </g>
                                </g>
                            </g>
                        </g>
                    </g>
                </g>
            </g>
        </g>
    </g>
</svg>