<?xml version="1.0" encoding="UTF-8" standalone="no"?>
<svg width="45px" height="51px" viewBox="0 0 45 51" version="1.1" xmlns="http://www.w3.org/2000/svg" xmlns:xlink="http://www.w3.org/1999/xlink">
    <!-- Generator: Sketch 39.1 (31720) - http://www.bohemiancoding.com/sketch -->
    <title>Rectangle-4</title>
    <desc>Created with Sketch.</desc>
    <defs>
        <polygon id="path-1" points="8.76244063 0.0158868079 0.00231770744 0.0158868079 0.00231770744 23.9216569 17.5225635 23.9216569 17.5225635 0.0158868079"></polygon>
    </defs>
    <g id="Main" stroke="none" stroke-width="1" fill="none" fill-rule="evenodd">
        <g id="logo" transform="translate(8.000000, 6.000000)">
            <g id="Rectangle-4">
                <g id="Landing-Page">
                    <g id="Logo-App" transform="translate(0.161630, 0.801359)">
                        <g id="Group-3">
                            <g id="Fill-1-Clipped">
                                <mask id="mask-2" fill="white">
                                    <use xlink:href="#path-1"></use>
                                </mask>
                                <g id="path-1"></g>
                                <path d="M8.58876708,0.0199160707 L8.58876708,8.02049716 C8.58876708,9.96617063 8.6007419,12.4491559 8.57509261,14.3949061 C8.57509261,14.3949061 8.36306101,14.4774868 8.25942086,14.5478262 C7.5593187,15.0846776 7.06993477,15.7239105 7.31093772,16.4338666 C7.52544154,17.071296 8.16122732,17.4974769 8.85696446,17.4761026 C9.56131575,17.450584 10.1713364,16.944355 10.3333827,16.251437 C10.4955064,15.5542594 9.93056518,14.9057783 9.15602598,14.48048 C9.09669267,14.448975 9.04010198,14.4097568 8.96551043,14.3637081 L8.96551043,0.0158868079 C11.1840586,5.57592419 13.2519944,11.1822789 17.5225635,15.4375642 C12.9319191,21.5993816 12.5845333,22.153271 12.1813295,23.9216569 L5.40987682,23.9216569 C4.37695187,20.5894181 2.0220066,18.1033629 0,15.4026056 C3.05836948,12.5476234 4.74075468,8.83690256 6.36218418,5.09813036 C7.05197254,3.50442259 7.85440148,1.86811976 8.48926018,0.252231855 L8.58876708,0.0199160707" id="Fill-1" fill="#228BDF" mask="url(#mask-2)"></path>
                            </g>
                        </g>
                        <polyline id="Fill-4" fill="#228BDF" points="13.3444323 25.2061091 4.33963678 25.2061091 3.963666 24.4204029 13.7621605 24.4204029 13.3444323 25.2061091"></polyline>
                        <polygon id="Fill-5" fill="#228BDF" points="5.20120589 30.2228484 6.35716248 30.2228484 6.35716248 25.7501363 5.20120589 25.7501363"></polygon>
                        <polygon id="Fill-6" fill="#228BDF" points="7.2582485 30.2228484 8.41428234 30.2228484 8.41428234 25.7501363 7.2582485 25.7501363"></polygon>
                        <polygon id="Fill-7" fill="#228BDF" points="9.30806759 30.2228484 10.4641401 30.2228484 10.4641401 25.7501363 9.30806759 25.7501363"></polygon>
                        <g id="Group-11" transform="translate(3.437933, 25.748908)" fill="#228BDF">
                            <polygon id="Fill-8" points="7.98809457 4.47386324 9.14408979 4.47386324 9.14408979 0.00122796582 7.98809457 0.00122796582"></polygon>
                            <polygon id="Fill-10" points="0.0242972996 6.90500533 10.8126074 6.90500533 10.8126074 6.00433077 0.0242972996 6.00433077"></polygon>
                        </g>
                        <polygon id="Fill-12" fill="#228BDF" points="4.2589033 31.4095622 13.4659961 31.4095622 13.4659961 30.623856 4.2589033 30.623856"></polygon>
                    </g>
                </g>
            </g>
        </g>
        <rect id="Rectangle-4" x="0" y="0" width="44.8889669" height="50.3300538"></rect>
    </g>
</svg>